<?xml version="1.0" standalone="no"?>
<!DOCTYPE svg PUBLIC "-//W3C//DTD SVG 20010904//EN"
 "http://www.w3.org/TR/2001/REC-SVG-20010904/DTD/svg10.dtd">
<svg version="1.0" xmlns="http://www.w3.org/2000/svg"
 width="500.000000pt" height="500.000000pt" viewBox="0 0 500.000000 500.000000"
 preserveAspectRatio="xMidYMid meet">
<metadata>
Created by potrace 1.11, written by Peter Selinger 2001-2013
</metadata>
<g transform="translate(0.000000,500.000000) scale(0.100000,-0.100000)"
fill="#000000" stroke="none">
<path d="M867 2818 c-63 -80 -127 -175 -120 -182 3 -3 204 -6 445 -6 364 0
438 -2 438 -14 0 -7 -23 -44 -50 -82 -28 -38 -49 -76 -48 -84 3 -13 34 -15
199 -18 l196 -2 64 87 c59 81 63 91 63 139 -1 32 -9 65 -20 86 -25 42 -107 98
-145 98 -15 0 -31 5 -34 10 -4 6 -175 10 -480 10 l-474 0 -34 -42z"/>
<path d="M2250 2674 c-74 -102 -143 -199 -153 -215 l-19 -29 556 0 555 0 25
33 c47 59 245 337 256 357 6 11 8 25 5 30 -4 6 -90 10 -218 10 l-212 0 -90
-125 -90 -125 -91 0 c-50 0 -93 3 -97 6 -3 3 28 52 69 108 41 57 74 110 74
119 0 15 -21 17 -217 17 l-218 -1 -135 -185z"/>
<path d="M3653 2853 c-7 -2 -47 -52 -90 -111 -42 -59 -108 -148 -145 -199 -37
-51 -68 -97 -68 -102 0 -8 77 -11 235 -11 l234 0 69 93 c178 240 222 303 222
320 0 16 -17 17 -222 16 -123 0 -228 -3 -235 -6z"/>
<path d="M979 2563 c-14 -16 -50 -62 -79 -103 -89 -124 -162 -223 -192 -262
-15 -20 -28 -42 -28 -47 0 -16 841 -15 889 0 89 28 185 84 247 143 35 34 64
67 64 74 0 9 -64 12 -275 12 -233 0 -277 2 -281 15 -3 8 16 45 45 86 48 68 50
74 34 91 -14 16 -35 18 -208 18 l-191 0 -25 -27z"/>
<path d="M30 2355 l0 -25 350 0 c335 0 350 1 360 19 5 11 10 22 10 25 0 3
-162 6 -360 6 l-360 0 0 -25z"/>
<path d="M1955 2265 c-47 -62 -85 -116 -85 -120 0 -3 102 -5 228 -4 l227 0 78
109 c42 60 77 114 77 119 0 8 -72 11 -220 11 l-220 0 -85 -115z"/>
<path d="M2683 2358 c-25 -28 -153 -206 -153 -213 0 -3 102 -5 228 -5 l227 1
65 91 c36 51 73 105 83 120 l19 28 -224 0 c-220 0 -225 0 -245 -22z"/>
<path d="M3265 2333 c-58 -80 -46 -132 42 -177 28 -14 84 -16 445 -16 l413 1
70 96 c39 53 76 106 83 119 l13 24 -516 0 -515 0 -35 -47z"/>
<path d="M4407 2362 c-10 -10 -17 -22 -17 -25 0 -4 131 -7 290 -7 l290 0 0 25
0 25 -273 0 c-253 0 -275 -1 -290 -18z"/>
<path d="M30 2265 l0 -24 308 -3 c274 -3 309 -1 326 13 40 36 14 39 -315 39
l-319 0 0 -25z"/>
<path d="M4336 2265 c-9 -13 -16 -27 -16 -29 0 -3 145 -4 323 -3 l322 2 3 28
3 27 -309 0 -310 0 -16 -25z"/>
<path d="M30 2165 l0 -25 278 0 c281 0 302 3 302 37 0 10 -59 13 -290 13
l-290 0 0 -25z"/>
<path d="M4267 2172 c-10 -10 -17 -22 -17 -25 0 -4 162 -7 360 -7 l360 0 0 25
0 25 -343 0 c-320 0 -345 -1 -360 -18z"/>
</g>
</svg>
