<?xml version="1.0" standalone="no"?>
<!DOCTYPE svg PUBLIC "-//W3C//DTD SVG 1.1//EN" "http://www.w3.org/Graphics/SVG/1.1/DTD/svg11.dtd" >
<svg>
<metadata>
Created by FontForge 20090622 at Mon Apr 13 16:21:12 2015
 By deploy user
Part of the digitally encoded machine readable outline data for producing the Typefaces provided is copyrighted &#194;&#169; 2006 Linotype GmbH, www.linotype.com. All rights reserved. This software is the property of Linotype GmbH, and may not be reproduced, used, displayed, modified, disclosed or transferred without the express written approval of Linotype GmbH.  Copyright &#194;&#169; 1988, 1990, 1994 Adobe Systems Incorporated. All Rights Reserved. Frutiger is a trademark of Linotype GmbH and may be registered in certain jurisdictions. This typeface is original artwork of Adrian Frutiger. The design may be protected in certain jurisdictions.
</metadata>
<defs>
<font id="FrutigerLTPro-Light" horiz-adv-x="556" >
  <font-face 
    font-family="Frutiger LT Pro 45 Light"
    font-weight="300"
    font-stretch="normal"
    units-per-em="1000"
    panose-1="2 11 4 3 3 5 4 2 2 4"
    ascent="750"
    descent="-250"
    x-height="510"
    cap-height="698"
    bbox="-152 -250 1000 927"
    underline-thickness="50"
    underline-position="-50"
    unicode-range="U+000D-U+FB02"
  />
<missing-glyph horiz-adv-x="512" 
d="M278 117h-56v67h56v-67zM271 234h-46l-2 17q0 56 13 81q15 28 46 59q31 29 40.5 46t9.5 37q0 36 -22.5 60.5t-53.5 24.5q-71 0 -82 -95l-50 8q7 69 43 103t92 34q54 0 89 -36t35 -95q0 -34 -13 -60t-50 -60q-37 -33 -43 -52q-6 -20 -6 -72zM50 50h412v617h-412v-617z
M0 718h512v-718h-512v718z" />
    <glyph glyph-name="fi" unicode="fi" 
d="M122 0v456h-103v54h103v37q0 40 1.5 64.5t8.5 56.5t20.5 50t40 31t64.5 13q42 0 59 -10l-4 -55q-20 11 -50 11q-14 0 -25.5 -3t-19 -10l-13.5 -13t-9.5 -18.5l-5.5 -19.5t-3 -23t-1 -22.5v-23.5v-21v-44h115v-54h-115v-456h-63zM403 0v510h63v-510h-63zM466 730v-84h-63
v84h63z" />
    <glyph glyph-name="fl" unicode="fl" 
d="M122 0v456h-103v54h103v37q0 40 1.5 64.5t8.5 56.5t20.5 50t40 31t64.5 13q42 0 59 -10l-4 -55q-20 11 -50 11q-14 0 -25.5 -3t-19 -10l-13.5 -13t-9.5 -18.5l-5.5 -19.5t-3 -23t-1 -22.5v-23.5v-21v-44h115v-54h-115v-456h-63zM403 0v750h63v-750h-63z" />
    <glyph glyph-name=".notdef" horiz-adv-x="512" 
d="M278 117h-56v67h56v-67zM271 234h-46l-2 17q0 56 13 81q15 28 46 59q31 29 40.5 46t9.5 37q0 36 -22.5 60.5t-53.5 24.5q-71 0 -82 -95l-50 8q7 69 43 103t92 34q54 0 89 -36t35 -95q0 -34 -13 -60t-50 -60q-37 -33 -43 -52q-6 -20 -6 -72zM50 50h412v617h-412v-617z
M0 718h512v-718h-512v718z" />
    <glyph glyph-name=".null" horiz-adv-x="500" 
 />
    <glyph glyph-name="nonmarkingreturn" horiz-adv-x="333" 
 />
    <glyph glyph-name="CR" unicode="&#xd;" horiz-adv-x="0" 
 />
    <glyph glyph-name="space" unicode=" " horiz-adv-x="278" 
 />
    <glyph glyph-name="exclam" unicode="!" horiz-adv-x="389" 
d="M235 698l-12 -529h-57l-12 529h81zM154 0v84h81v-84h-81z" />
    <glyph glyph-name="quotedbl" unicode="&#x22;" 
d="M179 480v218h63v-218h-63zM314 480v218h63v-218h-63z" />
    <glyph glyph-name="numbersign" unicode="#" 
d="M107 0l31 219h-104v54h111l22 152h-107v54h114l31 219h61l-31 -219h130l31 219h61l-31 -219h96v-54h-103l-21 -152h96v-54h-104l-31 -219h-61l31 219h-130l-31 -219h-61zM337 273l21 152h-130l-21 -152h130z" />
    <glyph glyph-name="dollar" unicode="$" 
d="M308 307v-250q97 27 97 134q0 34 -25 61t-72 55zM257 413v232q-103 -21 -103 -115q0 -36 26.5 -62.5t76.5 -54.5zM257 771h51v-61q75 0 135 -23l-11 -63q-43 24 -124 26v-265q38 -20 62 -36t51 -40.5t40 -55t13 -68.5q0 -80 -47 -127.5t-119 -63.5v-83h-51v78
q-4 -1 -12 -1q-89 0 -158 30l7 71q65 -41 154 -41q5 0 9 1v287q-40 22 -63.5 37t-52.5 39t-42.5 53t-13.5 63q0 71 48 118.5t124 59.5v65z" />
    <glyph glyph-name="percent" unicode="%" horiz-adv-x="1000" 
d="M579 180q0 85 39 136t119 51t119 -51t39 -136t-39 -136t-119 -51t-119 51t-39 136zM642 180q0 -55 22 -94t73 -39t73 39t22 94t-22 94t-73 39t-73 -39t-22 -94zM105 518q0 85 39 136t119 51t119 -51t39 -136t-39 -136t-119 -51t-119 51t-39 136zM168 518q0 -55 22 -94
t73 -39t73 39t22 94t-22 94t-73 39t-73 -39t-22 -94zM264 -22l413 742h58l-413 -742h-58z" />
    <glyph glyph-name="ampersand" unicode="&#x26;" horiz-adv-x="667" 
d="M308 376l184 -205q60 86 60 212h60q0 -147 -78 -252l119 -129h-88l-74 78q-82 -92 -212 -92q-96 0 -162.5 50t-66.5 145q0 139 165 203l-44.5 53t-30.5 52.5t-16 66.5q0 71 56.5 111.5t131.5 40.5q68 0 116 -37.5t48 -106.5q0 -23 -5.5 -43t-12 -34.5t-23 -30l-25.5 -24
t-32.5 -22t-33 -18t-36.5 -18.5zM453 123l-203 224q-55 -21 -93 -64t-38 -97q0 -68 47.5 -106t114.5 -38q47 0 94.5 22t77.5 59zM193 554q0 -26 13.5 -53.5t26.5 -43.5t39 -45l38.5 19t34 20t33.5 27t19.5 32.5t9.5 44.5q0 48 -27 74.5t-72 26.5q-48 0 -81.5 -27t-33.5 -75z
" />
    <glyph glyph-name="quotesingle" unicode="'" horiz-adv-x="278" 
d="M108 480v218h63v-218h-63z" />
    <glyph glyph-name="parenleft" unicode="(" horiz-adv-x="278" 
d="M255 -140h-42q-83 130 -127 232.5t-44 215.5t44 215.5t127 232.5h42q-50 -96 -74.5 -147.5t-50 -138.5t-25.5 -162t25.5 -162t50 -138.5t74.5 -147.5z" />
    <glyph glyph-name="parenright" unicode=")" horiz-adv-x="278" 
d="M23 756h42q83 -130 127 -232.5t44 -215.5t-44 -215.5t-127 -232.5h-42q50 96 74.5 147.5t50 138.5t25.5 162t-25.5 162t-50 138.5t-74.5 147.5z" />
    <glyph glyph-name="asterisk" unicode="*" 
d="M249 698h58l-7 -153l145 56l19 -58l-147 -42l97 -119l-50 -38l-86 131l-84 -131l-49 38l94 119l-147 42l17 58l147 -56z" />
    <glyph glyph-name="plus" unicode="+" horiz-adv-x="600" 
d="M46 219v69h219v219h69v-219h219v-69h-219v-219h-69v219h-219z" />
    <glyph glyph-name="comma" unicode="," horiz-adv-x="278" 
d="M54 -134l58 218h84l-79 -218h-63z" />
    <glyph glyph-name="hyphen" unicode="-" horiz-adv-x="333" 
d="M41 235v69h251v-69h-251z" />
    <glyph glyph-name="hyphen" unicode="&#x2010;" horiz-adv-x="333" 
d="M41 235v69h251v-69h-251z" />
    <glyph glyph-name="period" unicode="." horiz-adv-x="278" 
d="M98 0v84h81v-84h-81z" />
    <glyph glyph-name="slash" unicode="/" horiz-adv-x="278" 
d="M-31 -12l271 722h69l-271 -722h-69z" />
    <glyph glyph-name="zero" unicode="0" 
d="M278 645q-160 0 -160 -296t160 -296t160 296t-160 296zM278 705q54 0 95 -22t66 -56t41 -82.5t21.5 -95.5t5.5 -100q0 -50 -4.5 -93.5t-19 -94t-38.5 -86t-67 -59t-100 -23.5t-100 23.5t-67 59t-38.5 86t-19 94t-4.5 93.5q0 53 5.5 100t21.5 95.5t41 82.5t66 56t95 22z
" />
    <glyph glyph-name="one" unicode="1" 
d="M123 566l158 132h62v-698h-69v620l-113 -99z" />
    <glyph glyph-name="two" unicode="2" 
d="M50 0v60l160 177q78 86 123 155t45 127q0 55 -35.5 90.5t-87.5 35.5q-82 0 -168 -50l-12 63q96 47 176 47q90 0 146 -46.5t56 -136.5q0 -70 -52 -149t-140 -175l-126 -138h334v-60h-419z" />
    <glyph glyph-name="three" unicode="3" 
d="M150 332v60h18q35 0 62 2t62 10t58 22.5t39 41.5t16 64q0 54 -48.5 83.5t-111.5 29.5q-77 0 -156 -37l-6 65q86 32 169 32q95 0 158.5 -43t63.5 -130q0 -62 -40 -106.5t-105 -60.5v-2q68 -3 106.5 -50t38.5 -119q0 -93 -71.5 -147t-180.5 -54q-97 0 -172 28l8 66
q72 -34 168 -34q72 0 125.5 37t53.5 110q0 132 -191 132h-64z" />
    <glyph glyph-name="four" unicode="4" 
d="M356 221v408h-2l-268 -408h270zM23 161v68l314 469h88v-477h103v-60h-103v-161h-69v161h-333z" />
    <glyph glyph-name="five" unicode="5" 
d="M458 698v-60h-289l-5 -224q43 15 106 15q102 0 160.5 -54t58.5 -150q0 -112 -69.5 -172t-184.5 -60q-84 0 -149 25v71q66 -36 149 -36q75 0 130 40.5t55 117.5q0 81 -43 119.5t-132 38.5q-76 0 -151 -22l7 351h357z" />
    <glyph glyph-name="six" unicode="6" 
d="M279 -7q-224 0 -224 331q0 83 16.5 149.5t52 119.5t98 82.5t148.5 29.5q46 0 112 -16l-6 -66q-49 22 -115 22q-65 1 -113 -23.5t-74 -67.5t-38 -92.5t-12 -106.5h2q26 43 69.5 64.5t94.5 21.5q38 0 73.5 -10.5t69 -33.5t54 -67.5t20.5 -106.5q0 -104 -61 -167t-167 -63z
M290 381q-74 0 -116.5 -42.5t-42.5 -112.5q0 -71 38.5 -122t111.5 -51q74 0 115.5 46t41.5 119q0 77 -38 120t-110 43z" />
    <glyph glyph-name="seven" unicode="7" 
d="M138 0l278 638h-358v60h426v-60l-270 -638h-76z" />
    <glyph glyph-name="eight" unicode="8" 
d="M68 542q0 55 36 93.5t81.5 54t92.5 15.5q89 0 149 -41t60 -122q0 -101 -143 -179q83 -30 124.5 -69t41.5 -115q0 -49 -20 -86.5t-54 -58.5t-74 -31t-84 -10q-58 0 -109.5 19t-87 62.5t-35.5 104.5q0 74 41.5 115t119.5 69q-139 66 -139 179zM441 185q0 21 -8.5 39.5
t-19 31t-30.5 26t-33.5 20.5t-38 18.5t-33.5 16.5q-87 -35 -114 -56q-49 -39 -49 -102q0 -56 49.5 -91t113.5 -35q69 0 116 32.5t47 99.5zM137 536q0 -28 12.5 -51.5t38.5 -43t42.5 -29t47.5 -24.5q28 14 49 26.5t44 31.5t35 41.5t12 48.5q0 52 -43 80.5t-97 28.5
q-59 0 -100 -28.5t-41 -80.5z" />
    <glyph glyph-name="nine" unicode="9" 
d="M277 705q224 0 224 -331q0 -83 -16.5 -149.5t-52 -119.5t-98 -82.5t-148.5 -29.5q-46 0 -112 16l6 66q49 -22 115 -22q65 -1 113 23.5t74 67.5t38 92.5t12 106.5h-2q-26 -43 -69.5 -64.5t-94.5 -21.5q-38 0 -73.5 10.5t-69 33.5t-54 67.5t-20.5 106.5q0 104 61 167
t167 63zM266 317q74 0 116.5 42.5t42.5 112.5q0 71 -38.5 122t-111.5 51q-74 0 -115.5 -46t-41.5 -119q0 -77 38 -120t110 -43z" />
    <glyph glyph-name="colon" unicode=":" horiz-adv-x="278" 
d="M179 510v-84h-81v84h81zM98 0v84h81v-84h-81z" />
    <glyph glyph-name="semicolon" unicode=";" horiz-adv-x="278" 
d="M54 -134l58 218h84l-79 -218h-63zM179 510v-84h-81v84h81z" />
    <glyph glyph-name="less" unicode="&#x3c;" horiz-adv-x="600" 
d="M553 514v-66l-430 -195l430 -195v-66l-507 230v62z" />
    <glyph glyph-name="equal" unicode="=" horiz-adv-x="600" 
d="M46 319v69h507v-69h-507zM46 118v69h507v-69h-507z" />
    <glyph glyph-name="greater" unicode="&#x3e;" horiz-adv-x="600" 
d="M47 -8v66l431 195l-431 195v66l507 -230v-62z" />
    <glyph glyph-name="question" unicode="?" horiz-adv-x="500" 
d="M89 622l-3 63q84 25 146 25q83 0 137.5 -45.5t54.5 -133.5q0 -39 -12.5 -72t-31.5 -55.5l-41.5 -47.5l-41.5 -47.5t-31.5 -55t-12.5 -69.5v-15h-63v13q0 50 17 90t41 66.5l48.5 52.5t41.5 61t17 79q0 54 -35.5 86.5t-90.5 32.5q-54 0 -140 -28zM182 0v84h81v-84h-81z" />
    <glyph glyph-name="at" unicode="@" horiz-adv-x="800" 
d="M266 290q1 -45 20.5 -70.5t51.5 -25.5q46 0 85 36t59 84t20 91q0 48 -24 69t-56 21q-53 0 -104.5 -60.5t-51.5 -144.5zM616 538l-85 -272q-10 -28 -10 -49q0 -23 22 -23q57 0 102 64t45 150q0 111 -84.5 176.5t-204.5 65.5q-126 0 -210.5 -85.5t-84.5 -214.5
q0 -131 84 -216.5t211 -85.5q83 0 152 30t112 81h61q-47 -80 -132.5 -125.5t-192.5 -45.5q-115 0 -199 53.5t-123 134t-39 173.5q0 69 23 133t67 115.5t114 82t157 30.5q90 0 169.5 -33.5t132.5 -104t53 -164.5q0 -61 -23.5 -114.5t-58.5 -87t-73 -53t-71 -19.5
q-67 0 -79 61h-2q-16 -19 -28.5 -29.5t-37.5 -21t-57 -10.5q-58 0 -96.5 43.5t-38.5 106.5q0 103 65.5 187t165.5 84q77 0 110 -77l21 60h63z" />
    <glyph glyph-name="A" unicode="A" horiz-adv-x="667" 
d="M13 0l286 698h78l277 -698h-72l-75 187h-352l-75 -187h-67zM484 247l-151 385l-152 -385h303z" />
    <glyph glyph-name="B" unicode="B" 
d="M80 0v698h166q97 0 159 -39.5t62 -132.5q0 -134 -127 -159v-2q68 -12 108 -55.5t40 -110.5q0 -106 -74 -152.5t-195 -46.5h-139zM149 333v-273h72q198 0 198 136q0 44 -17 73t-50 42t-65 17.5t-77 4.5h-61zM151 638v-245h77q170 0 170 130q0 115 -152 115h-95z" />
    <glyph glyph-name="C" unicode="C" horiz-adv-x="667" 
d="M569 684l-4 -64q-57 30 -156 30q-133 0 -208 -84t-75 -217q0 -136 74 -218.5t209 -82.5q106 0 156 30l4 -60q-50 -30 -160 -30q-163 0 -257.5 98.5t-94.5 262.5q0 161 96 261t256 100q111 0 160 -26z" />
    <glyph glyph-name="D" unicode="D" horiz-adv-x="667" 
d="M149 638v-578h57q327 0 327 294q0 150 -77.5 217t-205.5 67h-101zM80 0v698h173q179 0 264 -93t85 -255q0 -92 -29.5 -161t-84 -109.5t-126 -60t-160.5 -19.5h-122z" />
    <glyph glyph-name="E" unicode="E" horiz-adv-x="500" 
d="M86 0v698h342v-60h-273v-249h259v-60h-259v-269h285v-60h-354z" />
    <glyph glyph-name="F" unicode="F" horiz-adv-x="444" 
d="M77 0v698h332v-60h-263v-249h251v-60h-251v-329h-69z" />
    <glyph glyph-name="G" unicode="G" horiz-adv-x="722" 
d="M564 73v245h-162v60h231v-347q-98 -43 -217 -43q-163 0 -257.5 98.5t-94.5 262.5q0 161 96 261t256 100q122 0 187 -33l-8 -64q-67 37 -179 37q-133 0 -208 -84t-75 -217q0 -136 74 -218.5t209 -82.5q107 0 148 25z" />
    <glyph glyph-name="H" unicode="H" horiz-adv-x="667" 
d="M88 0v698h69v-309h353v309h69v-698h-69v329h-353v-329h-69z" />
    <glyph glyph-name="I" unicode="I" horiz-adv-x="222" 
d="M77 0v698h69v-698h-69z" />
    <glyph glyph-name="J" unicode="J" horiz-adv-x="333" 
d="M250 698v-518q0 -86 -40.5 -139t-123.5 -53q-40 0 -72 12v61q26 -13 65 -13q54 0 78 36t24 94v520h69z" />
    <glyph glyph-name="K" unicode="K" horiz-adv-x="611" 
d="M95 0v698h69v-313l314 313h90l-338 -329l367 -369h-95l-338 349v-349h-69z" />
    <glyph glyph-name="L" unicode="L" horiz-adv-x="444" 
d="M80 0v698h69v-638h280v-60h-349z" />
    <glyph glyph-name="M" unicode="M" horiz-adv-x="889" 
d="M86 0v698h107l255 -614l256 614h99v-698h-69v629h-2l-254 -629h-59l-262 629h-2v-629h-69z" />
    <glyph glyph-name="N" unicode="N" horiz-adv-x="667" 
d="M77 0v698h87l355 -614h2v614h69v-698h-93l-349 602h-2v-602h-69z" />
    <glyph glyph-name="O" unicode="O" horiz-adv-x="722" 
d="M54 349q-2 152 78 256.5t229 104.5t229 -104.5t78 -256.5q-2 -165 -81 -263t-226 -98t-226 98t-81 263zM361 650q-115 0 -176.5 -89.5t-61.5 -211.5t61.5 -211.5t176.5 -89.5t176.5 89.5t61.5 211.5t-61.5 211.5t-176.5 89.5z" />
    <glyph glyph-name="P" unicode="P" horiz-adv-x="500" 
d="M86 0v698h172q101 0 158.5 -50.5t57.5 -147.5q0 -94 -62.5 -146t-160.5 -52h-96v-302h-69zM155 638v-276h48q36 0 61.5 2t54 10.5t46 22.5t29 40t11.5 63q0 66 -36 102t-102 36h-112z" />
    <glyph glyph-name="Q" unicode="Q" horiz-adv-x="722" 
d="M634 -130h-92l-124 123q-10 -2 -28 -4q-9 -1 -29 -1q-147 0 -226 98t-81 263q-2 152 78 256.5t229 104.5t229 -104.5t78 -256.5q-2 -125 -48 -213.5t-133 -123.5zM361 650q-115 0 -176.5 -89.5t-61.5 -211.5t61.5 -211.5t176.5 -89.5t176.5 89.5t61.5 211.5t-61.5 211.5
t-176.5 89.5z" />
    <glyph glyph-name="R" unicode="R" 
d="M157 638v-249h73q44 0 81.5 11t65 41t27.5 76q0 33 -10 56t-24 35.5t-39.5 19.5t-47 8.5t-55.5 1.5h-71zM88 0v698h180q205 0 205 -181q0 -65 -44 -108.5t-111 -52.5v-2q27 -3 44.5 -16t24 -25t21.5 -43l119 -270h-76l-101 236q-28 63 -54 78t-82 15h-57v-329h-69z" />
    <glyph glyph-name="S" unicode="S" horiz-adv-x="500" 
d="M60 18l7 71q65 -41 154 -41q69 0 113 36t44 107q0 37 -33 69t-80 57l-94 52t-80 67.5t-33 91.5q0 82 63 132t158 50q76 0 137 -23l-11 -63q-47 26 -127 26q-62 0 -106.5 -29t-44.5 -91q0 -38 33 -69t80 -55t94 -51t80 -70.5t33 -99.5q0 -67 -35.5 -113t-85.5 -65
t-108 -19q-89 0 -158 30z" />
    <glyph glyph-name="T" unicode="T" horiz-adv-x="500" 
d="M216 0v638h-206v60h481v-60h-206v-638h-69z" />
    <glyph glyph-name="U" unicode="U" horiz-adv-x="667" 
d="M587 698v-454q0 -73 -24.5 -126t-64.5 -80t-80.5 -38.5t-83.5 -11.5t-83.5 11.5t-80.5 38.5t-64.5 80t-24.5 126v454h69v-454q0 -88 48 -142t136 -54t136 54t48 142v454h69z" />
    <glyph glyph-name="V" unicode="V" horiz-adv-x="611" 
d="M605 698l-265 -698h-74l-260 698h73l225 -629l233 629h68z" />
    <glyph glyph-name="W" unicode="W" horiz-adv-x="944" 
d="M935 698l-202 -698h-82l-177 620h-2l-180 -620h-83l-200 698h71l172 -620h2l179 620h83l176 -620h2l175 620h66z" />
    <glyph glyph-name="X" unicode="X" horiz-adv-x="611" 
d="M7 0l260 367l-234 331h81l196 -282l198 282h77l-235 -331l254 -367h-84l-213 318l-221 -318h-79z" />
    <glyph glyph-name="Y" unicode="Y" horiz-adv-x="611" 
d="M271 0v296l-259 402h80l213 -341l219 341h75l-259 -402v-296h-69z" />
    <glyph glyph-name="Z" unicode="Z" horiz-adv-x="500" 
d="M21 0v60l364 578h-355v60h428v-60l-362 -578h374v-60h-449z" />
    <glyph glyph-name="bracketleft" unicode="[" horiz-adv-x="278" 
d="M69 -140v896h162v-48h-99v-800h99v-48h-162z" />
    <glyph glyph-name="backslash" unicode="\" horiz-adv-x="278" 
d="M38 710l271 -722h-69l-271 722h69z" />
    <glyph glyph-name="bracketright" unicode="]" horiz-adv-x="278" 
d="M209 756v-896h-162v48h99v800h-99v48h162z" />
    <glyph glyph-name="asciicircum" unicode="^" horiz-adv-x="600" 
d="M50 265l218 433h64l218 -433h-71l-179 364l-179 -364h-71z" />
    <glyph glyph-name="underscore" unicode="_" horiz-adv-x="500" 
d="M0 -75h500v-50h-500v50z" />
    <glyph glyph-name="grave" unicode="`" horiz-adv-x="222" 
d="M75 716l93 -144h-46l-126 144h79z" />
    <glyph glyph-name="a" unicode="a" horiz-adv-x="500" 
d="M372 0v82h-2q-20 -44 -66 -69t-96 -25q-51 0 -87 15.5t-52 40t-22.5 46t-6.5 42.5q0 41 13.5 72.5t39.5 50t53.5 31t68 17.5t69.5 6.5t70 1.5h12v26q0 67 -27 99t-89 32q-84 0 -150 -42v61q72 35 150 35q94 0 136.5 -45t42.5 -145v-225q0 -72 5 -107h-62zM366 226v31h-18
q-49 0 -84.5 -4t-74.5 -15.5t-59.5 -37.5t-20.5 -66q0 -47 29.5 -69.5t76.5 -22.5q42 0 72.5 14.5t45 33.5t22.5 48.5t9.5 46.5t1.5 41z" />
    <glyph glyph-name="b" unicode="b" 
d="M73 0v750h63v-326h2q11 30 52.5 64t106.5 34q108 0 159 -72t51 -195q0 -118 -54.5 -192.5t-155.5 -74.5q-110 0 -159 93h-2v-81h-63zM438 255q0 40 -7 75.5t-23 67.5t-47 51t-74 19q-54 0 -89.5 -35t-48.5 -80.5t-13 -97.5q0 -51 13.5 -97t49 -81t88.5 -35q43 0 74 19
t47 51t23 67.5t7 75.5z" />
    <glyph glyph-name="c" unicode="c" horiz-adv-x="444" 
d="M416 502l-5 -60q-59 26 -109 26q-90 0 -141 -59t-51 -154q0 -90 50.5 -151.5t134.5 -61.5q53 0 115 23l6 -59q-52 -18 -131 -18q-117 0 -180.5 76.5t-63.5 190.5q0 118 69.5 192.5t182.5 74.5q63 0 123 -20z" />
    <glyph glyph-name="d" unicode="d" 
d="M483 750v-750h-63v81h-2q-49 -93 -159 -93q-101 0 -155.5 74.5t-54.5 192.5q0 123 51 195t159 72q65 0 106.5 -34t52.5 -64h2v326h63zM118 255q0 -40 7 -75.5t23 -67.5t47 -51t74 -19q53 0 88.5 35t49 81t13.5 97t-13.5 97t-49 81t-88.5 35q-43 0 -74 -19t-47 -51
t-23 -67.5t-7 -75.5z" />
    <glyph glyph-name="e" unicode="e" horiz-adv-x="500" 
d="M421 80v-64q-68 -28 -148 -28q-120 0 -176 72t-56 195q0 118 59.5 192.5t155.5 74.5q102 0 152.5 -71t50.5 -182v-32h-349q0 -85 44 -140t124 -55q34 0 77 11.5t66 26.5zM110 291h280q0 74 -32 125.5t-98 51.5t-108 -54.5t-42 -122.5z" />
    <glyph glyph-name="f" unicode="f" horiz-adv-x="333" 
d="M122 0v456h-103v54h103v37q0 40 1.5 64.5t8.5 56.5t20.5 50t40 31t64.5 13q42 0 59 -10l-4 -55q-20 11 -50 11q-14 0 -25.5 -3t-19 -10l-13.5 -13t-9.5 -18.5l-5.5 -19.5t-3 -23t-1 -22.5v-23.5v-21v-44h115v-54h-115v-456h-63z" />
    <glyph glyph-name="g" unicode="g" 
d="M118 255q0 -84 36 -142.5t111 -58.5q54 0 90.5 32t50.5 75.5t14 93.5q0 213 -151 213q-43 0 -74 -19t-47 -51t-23 -67.5t-7 -75.5zM483 510v-468q0 -116 -57.5 -187t-181.5 -71q-66 0 -154 27l5 63q70 -36 150 -36q47 0 80.5 14t51.5 35.5t28.5 58.5t13 70.5t2.5 83.5h-2
q-46 -100 -155 -100q-47 0 -84.5 16t-61.5 41t-40 59.5t-22.5 68.5t-6.5 70q0 123 51 195t159 72q56 0 91 -13.5t68 -56.5h2v58h63z" />
    <glyph glyph-name="h" unicode="h" 
d="M79 0v750h63v-326h2q21 44 63 71t96 27q96 0 135 -56.5t39 -160.5v-305h-63v304q0 78 -25 121t-96 43q-53 0 -88.5 -31t-49 -73t-13.5 -91v-273h-63z" />
    <glyph glyph-name="i" unicode="i" horiz-adv-x="222" 
d="M79 0v510h63v-510h-63zM142 730v-84h-63v84h63z" />
    <glyph glyph-name="j" unicode="j" horiz-adv-x="222" 
d="M-28 -211v55q18 -6 38 -6q43 0 56 24.5t13 73.5v574h63v-582q0 -68 -25.5 -106t-89.5 -38q-30 0 -55 5zM142 730v-84h-63v84h63z" />
    <glyph glyph-name="k" unicode="k" horiz-adv-x="500" 
d="M79 0v750h63v-449l228 209h81l-249 -226l279 -284h-87l-252 262v-262h-63z" />
    <glyph glyph-name="l" unicode="l" horiz-adv-x="222" 
d="M79 0v750h63v-750h-63z" />
    <glyph glyph-name="m" unicode="m" horiz-adv-x="833" 
d="M758 0h-63v339q0 129 -108 129q-56 0 -96.5 -48t-40.5 -138v-282h-63v339q0 129 -108 129q-56 0 -96.5 -48t-40.5 -138v-282h-63v390q0 79 -4 120h61v-86l2 -1q13 23 19 31.5t25.5 29t48 29.5t66.5 9q44 0 84 -24.5t51 -83.5h2q18 47 61.5 77.5t101.5 30.5
q76 0 118.5 -47.5t42.5 -123.5v-351z" />
    <glyph glyph-name="n" unicode="n" 
d="M79 0v390q0 79 -4 120h61v-91h2q21 45 57.5 74t107.5 29q90 0 132 -53t42 -143v-326h-63v310q0 158 -121 158q-41 0 -71.5 -16.5t-47 -45t-24.5 -59.5t-8 -65v-282h-63z" />
    <glyph glyph-name="o" unicode="o" 
d="M40 255q0 113 60.5 190t177.5 77t177.5 -77t60.5 -190t-60.5 -190t-177.5 -77t-177.5 77t-60.5 190zM109 255q0 -92 44.5 -152.5t124.5 -60.5t124.5 60.5t44.5 152.5t-44.5 152.5t-124.5 60.5t-124.5 -60.5t-44.5 -152.5z" />
    <glyph glyph-name="p" unicode="p" 
d="M73 -210v720h63l-4 -93h2q11 20 18 30t27.5 31.5t50 32.5t67.5 11q108 0 159 -72t51 -195q0 -118 -54.5 -192.5t-155.5 -74.5q-113 0 -159 99h-2v-297h-63zM438 255q0 40 -7 75.5t-23 67.5t-47 51t-74 19q-53 0 -88.5 -35t-49 -81t-13.5 -97t13.5 -97t49 -81t88.5 -35
q43 0 74 19t47 51t23 67.5t7 75.5z" />
    <glyph glyph-name="q" unicode="q" 
d="M483 510v-720h-63v297h-2q-46 -99 -159 -99q-101 0 -155.5 74.5t-54.5 192.5q0 123 51 195t159 72q17 0 33 -2.5t29 -7.5t24 -10.5t20.5 -13.5l16.5 -14t13.5 -14.5l10 -13t8 -11.5t4.5 -8h2v83h63zM118 255q0 -40 7 -75.5t23 -67.5t47 -51t74 -19q53 0 88.5 35t49 81
t13.5 97t-13.5 97t-49 81t-88.5 35q-43 0 -74 -19t-47 -51t-23 -67.5t-7 -75.5z" />
    <glyph glyph-name="r" unicode="r" horiz-adv-x="333" 
d="M79 0v396q0 77 -4 114h63v-98h2q19 48 52.5 79t78.5 31q22 0 44 -6v-66q-19 6 -46 6q-47 0 -77 -33.5t-40 -76t-10 -94.5v-252h-63z" />
    <glyph glyph-name="s" unicode="s" horiz-adv-x="389" 
d="M34 12l6 62q64 -32 133 -32q47 0 80 24.5t33 66.5q0 33 -25 57.5t-61 41l-72.5 34t-61.5 47t-25 70.5q0 71 48 105t118 34q65 0 126 -23l-6 -55q-53 24 -113 24q-110 0 -110 -85q0 -26 26 -46t63 -35.5t73.5 -35t62.5 -53.5t26 -80q0 -51 -29.5 -85t-67.5 -47t-81 -13
q-83 0 -143 24z" />
    <glyph glyph-name="t" unicode="t" horiz-adv-x="333" 
d="M299 510v-54h-116v-330q0 -84 68 -84q27 0 58 12l4 -52q-35 -14 -77 -14q-33 0 -55 9.5t-34 23t-18.5 38.5t-7.5 45t-1 54v298h-100v54h100v123l63 22v-145h116z" />
    <glyph glyph-name="u" unicode="u" 
d="M477 510v-390q0 -79 4 -120h-61v91h-2q-21 -45 -57.5 -74t-107.5 -29q-90 0 -132 53t-42 143v326h63v-310q0 -158 121 -158q41 0 71.5 16.5t47 45t24.5 59.5t8 65v282h63z" />
    <glyph glyph-name="v" unicode="v" horiz-adv-x="444" 
d="M435 510l-179 -510h-74l-173 510h69l141 -441h2l148 441h66z" />
    <glyph glyph-name="w" unicode="w" horiz-adv-x="778" 
d="M771 510l-168 -510h-76l-139 441h-2l-139 -441h-76l-164 510h69l134 -441h2l142 441h76l135 -441h2l141 441h63z" />
    <glyph glyph-name="x" unicode="x" horiz-adv-x="444" 
d="M8 0l179 270l-162 240h78l121 -190l123 190h72l-158 -240l175 -270h-78l-134 220l-143 -220h-73z" />
    <glyph glyph-name="y" unicode="y" horiz-adv-x="444" 
d="M78 510l143 -425h1l147 425h66l-204 -586q-48 -140 -131 -140q-34 0 -68 8l6 54q24 -8 47 -8q37 0 55.5 26.5t36.5 84.5l13 45l-181 516h69z" />
    <glyph glyph-name="z" unicode="z" horiz-adv-x="444" 
d="M32 0v53l307 403h-295v54h368v-54l-307 -402h307v-54h-380z" />
    <glyph glyph-name="braceleft" unicode="{" horiz-adv-x="278" 
d="M273 756v-48h-50q-44 0 -44 -93v-165q0 -63 -28.5 -98.5t-55.5 -42.5v-2q27 -7 55.5 -42.5t28.5 -100.5v-162q0 -94 44 -94h50v-48h-56q-43 0 -72 33t-29 89v170q0 58 -19.5 95t-58.5 37v48q39 0 58.5 38t19.5 97v168q0 56 29 88.5t73 32.5h55z" />
    <glyph glyph-name="bar" unicode="|" horiz-adv-x="222" 
d="M77 750h69v-1000h-69v1000z" />
    <glyph glyph-name="braceright" unicode="}" horiz-adv-x="278" 
d="M5 -140v48h50q44 0 44 93v165q0 63 28.5 98.5t55.5 42.5v2q-27 7 -55.5 42.5t-28.5 100.5v162q0 94 -44 94h-50v48h56q43 0 72 -33t29 -89v-170q0 -58 19.5 -95t58.5 -37v-48q-39 0 -58.5 -38t-19.5 -97v-168q0 -56 -29 -88.5t-73 -32.5h-55z" />
    <glyph glyph-name="asciitilde" unicode="~" horiz-adv-x="600" 
d="M495 324l36 -51q-48 -91 -125 -91q-36 0 -114 37q-76 36 -99 36q-19 0 -36 -12t-27 -25t-25 -36l-36 51q48 91 125 91q40 0 114 -36q74 -37 99 -37q19 0 36 12t27 25t25 36z" />
    <glyph glyph-name="uni00A0" unicode="&#xa0;" horiz-adv-x="278" 
 />
    <glyph glyph-name="exclamdown" unicode="&#xa1;" horiz-adv-x="389" 
d="M154 -188l12 529h57l12 -529h-81zM235 510v-84h-81v84h81z" />
    <glyph glyph-name="cent" unicode="&#xa2;" 
d="M239 83l128 384q-3 1 -7 1q-90 0 -141 -59t-51 -154q0 -112 71 -172zM407 588h47l-25 -74q21 -4 45 -12l-5 -60q-24 11 -57 19l-134 -402q36 -17 75 -17q53 0 115 23l6 -59q-52 -18 -131 -18q-48 0 -84 14l-31 -93h-47l37 110q-58 32 -88.5 95.5t-30.5 140.5
q0 118 69.5 192.5t182.5 74.5q23 0 34 -2z" />
    <glyph glyph-name="sterling" unicode="&#xa3;" 
d="M67 0v60h103v287h-91v54h91v49q0 255 219 255q72 0 112 -21l-10 -62q-38 23 -102 23q-48 0 -80 -17.5t-46 -49.5t-19 -62.5t-5 -71.5v-43h166v-54h-166v-287h246v-60h-418z" />
    <glyph glyph-name="currency" unicode="&#xa4;" 
d="M27 141l57 55q-54 68 -54 153q0 91 54 151l-57 55l43 45l57 -56q64 53 151 53t152 -53l54 56l45 -45l-54 -55q51 -60 51 -151q0 -90 -51 -153l54 -55l-45 -43l-54 56q-61 -53 -152 -53t-151 53l-57 -56zM278 161q78 0 128.5 55.5t50.5 132.5q0 76 -51 132t-128 56
q-76 -3 -127.5 -58.5t-51.5 -129.5q0 -81 52 -136t127 -52z" />
    <glyph glyph-name="yen" unicode="&#xa5;" 
d="M244 0v175h-144v48h144v75l-3 6h-141v48h114l-195 346h76l183 -337l188 337h71l-194 -346h114v-48h-141l-3 -6v-75h144v-48h-144v-175h-69z" />
    <glyph glyph-name="brokenbar" unicode="&#xa6;" horiz-adv-x="222" 
d="M77 675h69v-350h-69v350zM77 175h69v-350h-69v350z" />
    <glyph glyph-name="section" unicode="&#xa7;" 
d="M421 688l-7 -58q-50 26 -119 26q-46 0 -88.5 -21.5t-42.5 -63.5q0 -36 31 -62t75 -43t88 -36.5t75 -53t31 -81.5q0 -29 -12.5 -55.5t-23.5 -39.5t-39 -41q78 -44 78 -118q0 -45 -22 -78.5t-56 -50.5t-65.5 -24.5t-59.5 -7.5q-88 0 -169 28l7 59q73 -33 162 -33
q51 0 92.5 27.5t41.5 77.5q0 34 -32 58t-77.5 40t-90.5 35t-77 53.5t-32 84.5q0 60 79 129l9 8l-7 4q-75 44 -75 109q0 51 29.5 86.5t69 49.5t82.5 14q77 0 145 -22zM313 382l-87 41l-7 -4q-19 -11 -40 -41t-21 -64q0 -52 65 -80l117 -51l21 21q38 38 38 79q0 27 -13 46.5
t-28.5 29t-44.5 23.5z" />
    <glyph glyph-name="dieresis" unicode="&#xa8;" horiz-adv-x="222" 
d="M159 604v84h75v-84h-75zM-12 604v84h75v-84h-75z" />
    <glyph glyph-name="copyright" unicode="&#xa9;" horiz-adv-x="800" 
d="M108 349q0 -130 84 -218.5t209 -88.5q124 0 207.5 88.5t83.5 218.5t-83.5 218.5t-207.5 88.5q-125 0 -209 -88.5t-84 -218.5zM530 280h61q-15 -72 -63.5 -114t-114.5 -42q-97 0 -156.5 64t-59.5 161q0 100 57.5 163t155.5 63q71 0 120.5 -39.5t59.5 -111.5h-60
q-9 44 -40.5 70.5t-78.5 26.5q-69 0 -107 -47.5t-38 -123.5q0 -72 40.5 -122t106.5 -50q47 0 78 28t39 74zM39 349q0 149 106 255t255 106t255 -106t106 -255t-106 -255t-255 -106t-255 106t-106 255z" />
    <glyph glyph-name="ordfeminine" unicode="&#xaa;" horiz-adv-x="325" 
d="M242 396v48h-2q-11 -26 -39.5 -41t-61.5 -15q-115 0 -115 91q0 30 13.5 52t32.5 33t50 17.5t54 7.5t56 1h8v15q0 12 -2 20.5t-8 19.5t-21.5 17t-39.5 6q-54 0 -98 -24v46q56 20 104 20q116 0 116 -114v-135q0 -43 3 -65h-50zM238 530v18h-12q-151 0 -151 -64
q0 -54 69 -54q27 -1 46.5 7t28.5 18t13.5 27.5t5 25.5t0.5 22z" />
    <glyph glyph-name="guillemotleft" unicode="&#xab;" 
d="M290 474l-133 -205l133 -205h-59l-140 205l140 205h59zM465 474l-133 -205l133 -205h-59l-140 205l140 205h59z" />
    <glyph glyph-name="logicalnot" unicode="&#xac;" horiz-adv-x="600" 
d="M46 319v69h507v-274h-69v205h-438z" />
    <glyph glyph-name="uni00AD" unicode="&#xad;" horiz-adv-x="333" 
d="M41 235v69h251v-69h-251z" />
    <glyph glyph-name="registered" unicode="&#xae;" horiz-adv-x="800" 
d="M39 349q0 149 106 255t255 106t255 -106t106 -255t-106 -255t-255 -106t-255 106t-106 255zM108 349q0 -130 84 -218.5t209 -88.5q124 0 207.5 88.5t83.5 218.5t-83.5 218.5t-207.5 88.5q-125 0 -209 -88.5t-84 -218.5zM262 138v423h162q145 0 145 -119q0 -52 -30 -84.5
t-79 -32.5l120 -187h-73l-118 187h-58v-187h-69zM331 507v-128h82q44 0 65.5 13.5t21.5 52.5q0 62 -87 62h-82z" />
    <glyph glyph-name="macron" unicode="&#xaf;" horiz-adv-x="222" 
d="M-11 614v54h244v-54h-244z" />
    <glyph glyph-name="degree" unicode="&#xb0;" horiz-adv-x="400" 
d="M200 657q-47 0 -77 -27.5t-30 -73.5q0 -42 32.5 -71.5t74.5 -29.5t74.5 29.5t32.5 71.5q0 46 -30 73.5t-77 27.5zM200 705q65 0 111.5 -42t46.5 -107t-46.5 -107t-111.5 -42t-111.5 42t-46.5 107t46.5 107t111.5 42z" />
    <glyph glyph-name="plusminus" unicode="&#xb1;" horiz-adv-x="600" 
d="M46 269v69h219v169h69v-169h219v-69h-219v-169h-69v169h-219zM46 0v69h507v-69h-507z" />
    <glyph glyph-name="twosuperior" unicode="&#xb2;" horiz-adv-x="361" 
d="M45 284v41l106 95q105 101 105 166q0 33 -22.5 52t-55.5 19q-54 0 -109 -30l-8 50q58 28 117 28q61 0 98 -28.5t37 -87.5q0 -29 -10 -56t-32 -54t-35 -41t-42 -41l-74 -65h197v-48h-272z" />
    <glyph glyph-name="threesuperior" unicode="&#xb3;" horiz-adv-x="361" 
d="M99 476v48h28q135 0 135 72q0 61 -100 61q-54 0 -103 -23l-4 52q47 19 119 19q58 0 101.5 -26t43.5 -79q0 -37 -26 -63t-69 -35v-2q46 -2 71.5 -31t25.5 -73q0 -58 -50.5 -88.5t-116.5 -30.5q-70 0 -120 17l5 52q53 -21 120 -21q42 0 73.5 21.5t31.5 55.5
q1 26 -12.5 42.5t-39.5 22.5t-42.5 7.5t-42.5 1.5h-28z" />
    <glyph glyph-name="acute" unicode="&#xb4;" horiz-adv-x="222" 
d="M53 572l93 144h79l-126 -144h-46z" />
    <glyph glyph-name="mu" unicode="&#xb5;" 
d="M79 -210v720h63v-310q0 -158 121 -158q41 0 71.5 16.5t47 45t24.5 59.5t8 65v282h63v-390q0 -79 4 -120h-61v91h-2q-21 -45 -57.5 -74t-107.5 -29q-63 0 -111 29v-227h-63z" />
    <glyph glyph-name="paragraph" unicode="&#xb6;" horiz-adv-x="600" 
d="M256 -108v428q-90 0 -149 53.5t-59 132.5q0 95 60 143.5t168 48.5h240v-806h-63v752h-134v-752h-63z" />
    <glyph glyph-name="periodcentered" unicode="&#xb7;" horiz-adv-x="278" 
d="M92 311q0 22 14.5 35t33.5 13q18 0 32.5 -13t14.5 -35t-14.5 -35t-32.5 -12q-19 -1 -33.5 12t-14.5 35z" />
    <glyph glyph-name="cedilla" unicode="&#xb8;" horiz-adv-x="222" 
d="M75 -85l29 85h27l-19 -54q27 3 33 3q31 0 52 -17.5t21 -47.5q0 -69 -110 -69q-42 0 -101 22l7 37q42 -29 89 -29q52 0 52 37q0 17 -10.5 27t-27.5 10q-23 0 -42 -4z" />
    <glyph glyph-name="onesuperior" unicode="&#xb9;" horiz-adv-x="361" 
d="M232 705v-421h-57v366l-76 -58l-22 33l103 80h52z" />
    <glyph glyph-name="ordmasculine" unicode="&#xba;" horiz-adv-x="361" 
d="M23 548q0 70 39.5 116.5t118.5 45.5t118 -46t39 -116q0 -67 -39.5 -113t-117.5 -47q-79 -1 -118.5 45t-39.5 115zM74 548q0 -52 29 -85t78 -33t77.5 33t28.5 85q0 50 -29 85t-77 35q-49 0 -78 -35t-29 -85z" />
    <glyph glyph-name="guillemotright" unicode="&#xbb;" 
d="M266 64l133 205l-133 205h59l140 -205l-140 -205h-59zM91 64l133 205l-133 205h59l140 -205l-140 -205h-59z" />
    <glyph glyph-name="onequarter" unicode="&#xbc;" horiz-adv-x="834" 
d="M650 139v213h-2l-160 -213h162zM431 91v49l208 281h68v-282h56v-48h-56v-91h-57v91h-219zM130 -22l443 742h57l-443 -742h-57zM226 705v-421h-57v366l-76 -58l-22 33l103 80h52z" />
    <glyph glyph-name="onehalf" unicode="&#xbd;" horiz-adv-x="834" 
d="M117 -22l443 742h57l-443 -742h-57zM214 705v-421h-57v366l-76 -58l-22 33l103 80h52zM503 0v41l106 95q105 101 105 166q0 33 -22.5 52t-55.5 19q-54 0 -109 -30l-8 50q58 28 117 28q61 0 98 -28.5t37 -87.5q0 -29 -10 -56t-32 -54t-35 -41t-42 -41l-74 -65h197v-48
h-272z" />
    <glyph glyph-name="threequarters" unicode="&#xbe;" horiz-adv-x="834" 
d="M669 139v213h-2l-160 -213h162zM450 91v49l208 281h68v-282h56v-48h-56v-91h-57v91h-219zM207 -22l443 742h58l-443 -742h-58zM118 476v48h28q135 0 135 72q0 61 -100 61q-54 0 -103 -23l-4 52q47 19 119 19q58 0 101.5 -26t43.5 -79q0 -37 -26 -63t-69 -35v-2
q46 -2 71.5 -31t25.5 -73q0 -58 -50.5 -88.5t-116.5 -30.5q-70 0 -120 17l5 52q53 -21 120 -21q42 0 73.5 21.5t31.5 55.5q1 26 -12.5 42.5t-39.5 22.5t-42.5 7.5t-42.5 1.5h-28z" />
    <glyph glyph-name="questiondown" unicode="&#xbf;" horiz-adv-x="500" 
d="M411 -112l3 -63q-84 -25 -146 -25q-83 0 -137.5 45.5t-54.5 133.5q0 39 12.5 72t31.5 55.5l41.5 47.5l41.5 47.5t31.5 55t12.5 69.5v15h63v-13q0 -50 -17 -90t-41 -66.5l-48.5 -52.5t-41.5 -61t-17 -79q0 -54 35.5 -86.5t90.5 -32.5q54 0 140 28zM318 510v-84h-81v84h81z
" />
    <glyph glyph-name="Agrave" unicode="&#xc0;" horiz-adv-x="667" 
d="M13 0l286 698h78l277 -698h-72l-75 187h-352l-75 -187h-67zM484 247l-151 385l-152 -385h303zM304 870l93 -144h-46l-126 144h79z" />
    <glyph glyph-name="Aacute" unicode="&#xc1;" horiz-adv-x="667" 
d="M13 0l286 698h78l277 -698h-72l-75 187h-352l-75 -187h-67zM484 247l-151 385l-152 -385h303zM284 726l93 144h79l-126 -144h-46z" />
    <glyph glyph-name="Acircumflex" unicode="&#xc2;" horiz-adv-x="667" 
d="M13 0l286 698h78l277 -698h-72l-75 187h-352l-75 -187h-67zM484 247l-151 385l-152 -385h303zM206 726l93 144h82l93 -144h-46l-88 102l-88 -102h-46z" />
    <glyph glyph-name="Atilde" unicode="&#xc3;" horiz-adv-x="667" 
d="M13 0l286 698h78l277 -698h-72l-75 187h-352l-75 -187h-67zM484 247l-151 385l-152 -385h303zM238 749h-36q8 37 28.5 63.5t52.5 26.5q23 0 61 -12q41 -13 44 -13q17 0 31 9t18 25h37q-7 -48 -32 -68t-51 -20q-23 0 -62 13q-36 12 -47 12q-18 0 -27.5 -8.5t-16.5 -27.5z
" />
    <glyph glyph-name="Adieresis" unicode="&#xc4;" horiz-adv-x="667" 
d="M13 0l286 698h78l277 -698h-72l-75 187h-352l-75 -187h-67zM484 247l-151 385l-152 -385h303zM388 758v84h75v-84h-75zM217 758v84h75v-84h-75z" />
    <glyph glyph-name="Aring" unicode="&#xc5;" horiz-adv-x="667" 
d="M13 0l286 698h78l277 -698h-72l-75 187h-352l-75 -187h-67zM484 247l-151 385l-152 -385h303zM245 816q0 40 27.5 67.5t68.5 27.5q40 0 68 -27.5t28 -67.5t-27.5 -67.5t-68.5 -27.5t-68.5 27t-27.5 68zM281 816q0 -25 18 -42t42 -17q26 0 43 17t17 42t-17.5 42t-42.5 17
q-24 0 -42 -17.5t-18 -41.5z" />
    <glyph glyph-name="AE" unicode="&#xc6;" horiz-adv-x="889" 
d="M477 247v397h-2l-246 -397h248zM0 0l436 698h381v-60h-271v-249h257v-60h-257v-269h283v-60h-351v187h-286l-116 -187h-76z" />
    <glyph glyph-name="Ccedilla" unicode="&#xc7;" horiz-adv-x="667" 
d="M569 684l-4 -64q-57 30 -156 30q-133 0 -208 -84t-75 -217q0 -136 74 -218.5t209 -82.5q106 0 156 30l4 -60q-50 -30 -160 -30q-10 0 -14 1l-15 -43q27 3 33 3q31 0 52 -17.5t21 -47.5q0 -69 -110 -69q-42 0 -101 22l7 37q42 -29 89 -29q52 0 52 37q0 17 -10.5 27
t-27.5 10q-23 0 -42 -4l25 76q-146 11 -228.5 108t-82.5 250q0 161 96 261t256 100q111 0 160 -26z" />
    <glyph glyph-name="Egrave" unicode="&#xc8;" horiz-adv-x="500" 
d="M86 0v698h342v-60h-273v-249h259v-60h-259v-269h285v-60h-354zM215 870l93 -144h-46l-126 144h79z" />
    <glyph glyph-name="Eacute" unicode="&#xc9;" horiz-adv-x="500" 
d="M86 0v698h342v-60h-273v-249h259v-60h-259v-269h285v-60h-354zM195 726l93 144h79l-126 -144h-46z" />
    <glyph glyph-name="Ecircumflex" unicode="&#xca;" horiz-adv-x="500" 
d="M86 0v698h342v-60h-273v-249h259v-60h-259v-269h285v-60h-354zM116 726l93 144h82l93 -144h-46l-88 102l-88 -102h-46z" />
    <glyph glyph-name="Edieresis" unicode="&#xcb;" horiz-adv-x="500" 
d="M86 0v698h342v-60h-273v-249h259v-60h-259v-269h285v-60h-354zM300 758v84h75v-84h-75zM129 758v84h75v-84h-75z" />
    <glyph glyph-name="Igrave" unicode="&#xcc;" horiz-adv-x="222" 
d="M77 0v698h69v-698h-69zM75 870l93 -144h-46l-126 144h79z" />
    <glyph glyph-name="Iacute" unicode="&#xcd;" horiz-adv-x="222" 
d="M77 0v698h69v-698h-69zM53 726l93 144h79l-126 -144h-46z" />
    <glyph glyph-name="Icircumflex" unicode="&#xce;" horiz-adv-x="222" 
d="M77 0v698h69v-698h-69zM-24 726l93 144h82l93 -144h-46l-88 102l-88 -102h-46z" />
    <glyph glyph-name="Idieresis" unicode="&#xcf;" horiz-adv-x="222" 
d="M77 0v698h69v-698h-69zM159 758v84h75v-84h-75zM-12 758v84h75v-84h-75z" />
    <glyph glyph-name="Eth" unicode="&#xd0;" horiz-adv-x="667" 
d="M80 389v309h118q404 0 404 -348q0 -92 -29.5 -161t-84 -109.5t-126 -60t-160.5 -19.5h-122v329h-69v60h69zM149 638v-249h213v-60h-213v-269h57q327 0 327 294q0 82 -23.5 138.5t-70 88t-105 44.5t-139.5 13h-46z" />
    <glyph glyph-name="Ntilde" unicode="&#xd1;" horiz-adv-x="667" 
d="M77 0v698h87l355 -614h2v614h69v-698h-93l-349 602h-2v-602h-69zM236 749h-36q8 37 28.5 63.5t52.5 26.5q23 0 61 -12q41 -13 44 -13q17 0 31 9t18 25h37q-7 -48 -32 -68t-51 -20q-23 0 -62 13q-36 12 -47 12q-18 0 -27.5 -8.5t-16.5 -27.5z" />
    <glyph glyph-name="Ograve" unicode="&#xd2;" horiz-adv-x="722" 
d="M54 349q-2 152 78 256.5t229 104.5t229 -104.5t78 -256.5q-2 -165 -81 -263t-226 -98t-226 98t-81 263zM361 650q-115 0 -176.5 -89.5t-61.5 -211.5t61.5 -211.5t176.5 -89.5t176.5 89.5t61.5 211.5t-61.5 211.5t-176.5 89.5zM330 870l93 -144h-46l-126 144h79z" />
    <glyph glyph-name="Oacute" unicode="&#xd3;" horiz-adv-x="722" 
d="M54 349q-2 152 78 256.5t229 104.5t229 -104.5t78 -256.5q-2 -165 -81 -263t-226 -98t-226 98t-81 263zM361 650q-115 0 -176.5 -89.5t-61.5 -211.5t61.5 -211.5t176.5 -89.5t176.5 89.5t61.5 211.5t-61.5 211.5t-176.5 89.5zM310 726l93 144h79l-126 -144h-46z" />
    <glyph glyph-name="Ocircumflex" unicode="&#xd4;" horiz-adv-x="722" 
d="M54 349q-2 152 78 256.5t229 104.5t229 -104.5t78 -256.5q-2 -165 -81 -263t-226 -98t-226 98t-81 263zM361 650q-115 0 -176.5 -89.5t-61.5 -211.5t61.5 -211.5t176.5 -89.5t176.5 89.5t61.5 211.5t-61.5 211.5t-176.5 89.5zM231 726l93 144h82l93 -144h-46l-88 102
l-88 -102h-46z" />
    <glyph glyph-name="Otilde" unicode="&#xd5;" horiz-adv-x="722" 
d="M54 349q-2 152 78 256.5t229 104.5t229 -104.5t78 -256.5q-2 -165 -81 -263t-226 -98t-226 98t-81 263zM361 650q-115 0 -176.5 -89.5t-61.5 -211.5t61.5 -211.5t176.5 -89.5t176.5 89.5t61.5 211.5t-61.5 211.5t-176.5 89.5zM263 749h-36q8 37 28.5 63.5t52.5 26.5
q23 0 61 -12q41 -13 44 -13q17 0 31 9t18 25h37q-7 -48 -32 -68t-51 -20q-23 0 -62 13q-36 12 -47 12q-18 0 -27.5 -8.5t-16.5 -27.5z" />
    <glyph glyph-name="Odieresis" unicode="&#xd6;" horiz-adv-x="722" 
d="M54 349q-2 152 78 256.5t229 104.5t229 -104.5t78 -256.5q-2 -165 -81 -263t-226 -98t-226 98t-81 263zM361 650q-115 0 -176.5 -89.5t-61.5 -211.5t61.5 -211.5t176.5 -89.5t176.5 89.5t61.5 211.5t-61.5 211.5t-176.5 89.5zM414 758v84h75v-84h-75zM243 758v84h75v-84
h-75z" />
    <glyph glyph-name="multiply" unicode="&#xd7;" horiz-adv-x="600" 
d="M252 257l-181 180l49 49l181 -181l179 181l50 -49l-180 -180l180 -181l-50 -50l-179 182l-181 -182l-49 50z" />
    <glyph glyph-name="Oslash" unicode="&#xd8;" horiz-adv-x="722" 
d="M166 169l357 408q-63 73 -162 73q-115 0 -176.5 -89.5t-61.5 -211.5q0 -103 43 -180zM554 534l-358 -410q63 -76 165 -76q115 0 176.5 89.5t61.5 211.5q0 107 -45 185zM654 727l39 -33l-91 -105q68 -96 66 -240q-2 -165 -81 -263t-226 -98q-135 0 -212 83l-81 -93l-39 33
l88 101q-61 90 -63 237q-2 152 78 256.5t229 104.5q128 0 207 -81z" />
    <glyph glyph-name="Ugrave" unicode="&#xd9;" horiz-adv-x="667" 
d="M587 698v-454q0 -73 -24.5 -126t-64.5 -80t-80.5 -38.5t-83.5 -11.5t-83.5 11.5t-80.5 38.5t-64.5 80t-24.5 126v454h69v-454q0 -88 48 -142t136 -54t136 54t48 142v454h69zM303 870l93 -144h-46l-126 144h79z" />
    <glyph glyph-name="Uacute" unicode="&#xda;" horiz-adv-x="667" 
d="M587 698v-454q0 -73 -24.5 -126t-64.5 -80t-80.5 -38.5t-83.5 -11.5t-83.5 11.5t-80.5 38.5t-64.5 80t-24.5 126v454h69v-454q0 -88 48 -142t136 -54t136 54t48 142v454h69zM282 726l93 144h79l-126 -144h-46z" />
    <glyph glyph-name="Ucircumflex" unicode="&#xdb;" horiz-adv-x="667" 
d="M587 698v-454q0 -73 -24.5 -126t-64.5 -80t-80.5 -38.5t-83.5 -11.5t-83.5 11.5t-80.5 38.5t-64.5 80t-24.5 126v454h69v-454q0 -88 48 -142t136 -54t136 54t48 142v454h69zM204 726l93 144h82l93 -144h-46l-88 102l-88 -102h-46z" />
    <glyph glyph-name="Udieresis" unicode="&#xdc;" horiz-adv-x="667" 
d="M587 698v-454q0 -73 -24.5 -126t-64.5 -80t-80.5 -38.5t-83.5 -11.5t-83.5 11.5t-80.5 38.5t-64.5 80t-24.5 126v454h69v-454q0 -88 48 -142t136 -54t136 54t48 142v454h69zM386 758v84h75v-84h-75zM215 758v84h75v-84h-75z" />
    <glyph glyph-name="Yacute" unicode="&#xdd;" horiz-adv-x="611" 
d="M271 0v296l-259 402h80l213 -341l219 341h75l-259 -402v-296h-69zM255 726l93 144h79l-126 -144h-46z" />
    <glyph glyph-name="Thorn" unicode="&#xde;" horiz-adv-x="500" 
d="M86 0v698h69v-130h103q101 0 158.5 -50.5t57.5 -147.5q0 -94 -62.5 -146t-160.5 -52h-96v-172h-69zM155 508v-276h48q36 0 61.5 2t54 10.5t46 22.5t29 40t11.5 63q0 66 -36 102t-102 36h-112z" />
    <glyph glyph-name="germandbls" unicode="&#xdf;" 
d="M79 0v542q0 101 50.5 160.5t149.5 59.5q86 0 137.5 -50t51.5 -136q0 -68 -35.5 -114.5t-98.5 -59.5v-2q84 -7 128 -55.5t44 -129.5q0 -98 -58.5 -160t-158.5 -62q-53 0 -85 12l4 59q27 -17 82 -17q70 0 108.5 46t38.5 121q0 83 -49 118t-142 35h-10v54h18q64 0 104.5 42
t40.5 111q0 59 -32 96.5t-88 37.5q-137 0 -137 -188v-520h-63z" />
    <glyph glyph-name="agrave" unicode="&#xe0;" horiz-adv-x="500" 
d="M372 0v82h-2q-20 -44 -66 -69t-96 -25q-51 0 -87 15.5t-52 40t-22.5 46t-6.5 42.5q0 41 13.5 72.5t39.5 50t53.5 31t68 17.5t69.5 6.5t70 1.5h12v26q0 67 -27 99t-89 32q-84 0 -150 -42v61q72 35 150 35q94 0 136.5 -45t42.5 -145v-225q0 -72 5 -107h-62zM366 226v31h-18
q-49 0 -84.5 -4t-74.5 -15.5t-59.5 -37.5t-20.5 -66q0 -47 29.5 -69.5t76.5 -22.5q42 0 72.5 14.5t45 33.5t22.5 48.5t9.5 46.5t1.5 41zM216 710l93 -144h-46l-126 144h79z" />
    <glyph glyph-name="aacute" unicode="&#xe1;" horiz-adv-x="500" 
d="M372 0v82h-2q-20 -44 -66 -69t-96 -25q-51 0 -87 15.5t-52 40t-22.5 46t-6.5 42.5q0 41 13.5 72.5t39.5 50t53.5 31t68 17.5t69.5 6.5t70 1.5h12v26q0 67 -27 99t-89 32q-84 0 -150 -42v61q72 35 150 35q94 0 136.5 -45t42.5 -145v-225q0 -72 5 -107h-62zM366 226v31h-18
q-49 0 -84.5 -4t-74.5 -15.5t-59.5 -37.5t-20.5 -66q0 -47 29.5 -69.5t76.5 -22.5q42 0 72.5 14.5t45 33.5t22.5 48.5t9.5 46.5t1.5 41zM194 566l93 144h79l-126 -144h-46z" />
    <glyph glyph-name="acircumflex" unicode="&#xe2;" horiz-adv-x="500" 
d="M372 0v82h-2q-20 -44 -66 -69t-96 -25q-51 0 -87 15.5t-52 40t-22.5 46t-6.5 42.5q0 41 13.5 72.5t39.5 50t53.5 31t68 17.5t69.5 6.5t70 1.5h12v26q0 67 -27 99t-89 32q-84 0 -150 -42v61q72 35 150 35q94 0 136.5 -45t42.5 -145v-225q0 -72 5 -107h-62zM366 226v31h-18
q-49 0 -84.5 -4t-74.5 -15.5t-59.5 -37.5t-20.5 -66q0 -47 29.5 -69.5t76.5 -22.5q42 0 72.5 14.5t45 33.5t22.5 48.5t9.5 46.5t1.5 41zM117 566l93 144h82l93 -144h-46l-88 102l-88 -102h-46z" />
    <glyph glyph-name="atilde" unicode="&#xe3;" horiz-adv-x="500" 
d="M372 0v82h-2q-20 -44 -66 -69t-96 -25q-51 0 -87 15.5t-52 40t-22.5 46t-6.5 42.5q0 41 13.5 72.5t39.5 50t53.5 31t68 17.5t69.5 6.5t70 1.5h12v26q0 67 -27 99t-89 32q-84 0 -150 -42v61q72 35 150 35q94 0 136.5 -45t42.5 -145v-225q0 -72 5 -107h-62zM366 226v31h-18
q-49 0 -84.5 -4t-74.5 -15.5t-59.5 -37.5t-20.5 -66q0 -47 29.5 -69.5t76.5 -22.5q42 0 72.5 14.5t45 33.5t22.5 48.5t9.5 46.5t1.5 41zM148 589h-36q8 37 28.5 63.5t52.5 26.5q23 0 61 -12q41 -13 44 -13q17 0 31 9t18 25h37q-7 -48 -32 -68t-51 -20q-23 0 -62 13
q-36 12 -47 12q-18 0 -27.5 -8.5t-16.5 -27.5z" />
    <glyph glyph-name="adieresis" unicode="&#xe4;" horiz-adv-x="500" 
d="M372 0v82h-2q-20 -44 -66 -69t-96 -25q-51 0 -87 15.5t-52 40t-22.5 46t-6.5 42.5q0 41 13.5 72.5t39.5 50t53.5 31t68 17.5t69.5 6.5t70 1.5h12v26q0 67 -27 99t-89 32q-84 0 -150 -42v61q72 35 150 35q94 0 136.5 -45t42.5 -145v-225q0 -72 5 -107h-62zM366 226v31h-18
q-49 0 -84.5 -4t-74.5 -15.5t-59.5 -37.5t-20.5 -66q0 -47 29.5 -69.5t76.5 -22.5q42 0 72.5 14.5t45 33.5t22.5 48.5t9.5 46.5t1.5 41zM299 598v84h75v-84h-75zM128 598v84h75v-84h-75z" />
    <glyph glyph-name="aring" unicode="&#xe5;" horiz-adv-x="500" 
d="M372 0v82h-2q-20 -44 -66 -69t-96 -25q-51 0 -87 15.5t-52 40t-22.5 46t-6.5 42.5q0 41 13.5 72.5t39.5 50t53.5 31t68 17.5t69.5 6.5t70 1.5h12v26q0 67 -27 99t-89 32q-84 0 -150 -42v61q72 35 150 35q94 0 136.5 -45t42.5 -145v-225q0 -72 5 -107h-62zM366 226v31h-18
q-49 0 -84.5 -4t-74.5 -15.5t-59.5 -37.5t-20.5 -66q0 -47 29.5 -69.5t76.5 -22.5q42 0 72.5 14.5t45 33.5t22.5 48.5t9.5 46.5t1.5 41zM155 648q0 40 27.5 67.5t68.5 27.5q40 0 68 -27.5t28 -67.5t-27.5 -67.5t-68.5 -27.5t-68.5 27t-27.5 68zM191 648q0 -25 18 -42t42 -17
q26 0 43 17t17 42t-17.5 42t-42.5 17q-24 0 -42 -17.5t-18 -41.5z" />
    <glyph glyph-name="ae" unicode="&#xe6;" horiz-adv-x="833" 
d="M372 210v27h-22q-28 0 -45.5 -0.5t-49.5 -3.5t-53 -10.5t-43 -19t-33 -32t-11 -47.5q0 -38 32 -60t74 -22q79 0 115 46t36 122zM749 80v-64q-68 -28 -148 -28q-75 0 -124.5 28t-69.5 75q-71 -103 -193 -103q-78 0 -123 35t-45 101q0 39 13 68.5t38.5 47t51 28.5
t62.5 15.5t60.5 6t56.5 1.5h44v27q0 72 -25 111t-90 39q-85 0 -151 -42v61q72 35 150 35q60 0 99.5 -20.5t63.5 -71.5q27 42 71.5 67t93.5 25q102 0 152.5 -71t50.5 -182v-32h-346v-23q0 -78 40.5 -125t124.5 -47q34 0 77 11.5t66 26.5zM441 291h277q0 74 -32 125.5
t-98 51.5q-64 0 -105.5 -54t-41.5 -123z" />
    <glyph glyph-name="ccedilla" unicode="&#xe7;" horiz-adv-x="444" 
d="M416 502l-5 -60q-59 26 -109 26q-90 0 -141 -59t-51 -154q0 -90 50.5 -151.5t134.5 -61.5q53 0 115 23l6 -59q-52 -18 -131 -18h-2l-15 -42q27 3 33 3q31 0 52 -17.5t21 -47.5q0 -69 -110 -69q-42 0 -101 22l7 37q42 -29 89 -29q52 0 52 37q0 17 -10.5 27t-27.5 10
q-23 0 -42 -4l26 75q-105 10 -160.5 84.5t-55.5 180.5q0 118 69.5 192.5t182.5 74.5q63 0 123 -20z" />
    <glyph glyph-name="egrave" unicode="&#xe8;" horiz-adv-x="500" 
d="M421 80v-64q-68 -28 -148 -28q-120 0 -176 72t-56 195q0 118 59.5 192.5t155.5 74.5q102 0 152.5 -71t50.5 -182v-32h-349q0 -85 44 -140t124 -55q34 0 77 11.5t66 26.5zM110 291h280q0 74 -32 125.5t-98 51.5t-108 -54.5t-42 -122.5zM215 710l93 -144h-46l-126 144h79z
" />
    <glyph glyph-name="eacute" unicode="&#xe9;" horiz-adv-x="500" 
d="M421 80v-64q-68 -28 -148 -28q-120 0 -176 72t-56 195q0 118 59.5 192.5t155.5 74.5q102 0 152.5 -71t50.5 -182v-32h-349q0 -85 44 -140t124 -55q34 0 77 11.5t66 26.5zM110 291h280q0 74 -32 125.5t-98 51.5t-108 -54.5t-42 -122.5zM195 566l93 144h79l-126 -144h-46z
" />
    <glyph glyph-name="ecircumflex" unicode="&#xea;" horiz-adv-x="500" 
d="M421 80v-64q-68 -28 -148 -28q-120 0 -176 72t-56 195q0 118 59.5 192.5t155.5 74.5q102 0 152.5 -71t50.5 -182v-32h-349q0 -85 44 -140t124 -55q34 0 77 11.5t66 26.5zM110 291h280q0 74 -32 125.5t-98 51.5t-108 -54.5t-42 -122.5zM118 566l93 144h82l93 -144h-46
l-88 102l-88 -102h-46z" />
    <glyph glyph-name="edieresis" unicode="&#xeb;" horiz-adv-x="500" 
d="M421 80v-64q-68 -28 -148 -28q-120 0 -176 72t-56 195q0 118 59.5 192.5t155.5 74.5q102 0 152.5 -71t50.5 -182v-32h-349q0 -85 44 -140t124 -55q34 0 77 11.5t66 26.5zM110 291h280q0 74 -32 125.5t-98 51.5t-108 -54.5t-42 -122.5zM300 598v84h75v-84h-75zM129 598v84
h75v-84h-75z" />
    <glyph glyph-name="igrave" unicode="&#xec;" horiz-adv-x="222" 
d="M75 710l93 -144h-46l-126 144h79zM79 0v510h63v-510h-63z" />
    <glyph glyph-name="iacute" unicode="&#xed;" horiz-adv-x="222" 
d="M53 566l93 144h79l-126 -144h-46zM79 0v510h63v-510h-63z" />
    <glyph glyph-name="icircumflex" unicode="&#xee;" horiz-adv-x="222" 
d="M-23 566l93 144h82l93 -144h-46l-88 102l-88 -102h-46zM79 0v510h63v-510h-63z" />
    <glyph glyph-name="idieresis" unicode="&#xef;" horiz-adv-x="222" 
d="M79 0v510h63v-510h-63zM159 598v84h75v-84h-75zM-12 598v84h75v-84h-75z" />
    <glyph glyph-name="eth" unicode="&#xf0;" 
d="M109 255q0 -92 44.5 -152.5t124.5 -60.5t124.5 60.5t44.5 152.5t-44.5 152.5t-124.5 60.5t-124.5 -60.5t-44.5 -152.5zM212 564l-30 42l91 57q-59 36 -135 51l12 48q105 -14 182 -63l107 66l30 -42l-93 -57q140 -121 140 -370q0 -308 -238 -308q-117 0 -177.5 77
t-60.5 190t60.5 190t177.5 77q93 0 157 -79h2q-27 115 -117 188z" />
    <glyph glyph-name="ntilde" unicode="&#xf1;" 
d="M79 0v390q0 79 -4 120h61v-91h2q21 45 57.5 74t107.5 29q90 0 132 -53t42 -143v-326h-63v310q0 158 -121 158q-41 0 -71.5 -16.5t-47 -45t-24.5 -59.5t-8 -65v-282h-63zM178 589h-36q8 37 28.5 63.5t52.5 26.5q23 0 61 -12q41 -13 44 -13q17 0 31 9t18 25h37
q-7 -48 -32 -68t-51 -20q-23 0 -62 13q-36 12 -47 12q-18 0 -27.5 -8.5t-16.5 -27.5z" />
    <glyph glyph-name="ograve" unicode="&#xf2;" 
d="M40 255q0 113 60.5 190t177.5 77t177.5 -77t60.5 -190t-60.5 -190t-177.5 -77t-177.5 77t-60.5 190zM109 255q0 -92 44.5 -152.5t124.5 -60.5t124.5 60.5t44.5 152.5t-44.5 152.5t-124.5 60.5t-124.5 -60.5t-44.5 -152.5zM246 710l93 -144h-46l-126 144h79z" />
    <glyph glyph-name="oacute" unicode="&#xf3;" 
d="M40 255q0 113 60.5 190t177.5 77t177.5 -77t60.5 -190t-60.5 -190t-177.5 -77t-177.5 77t-60.5 190zM109 255q0 -92 44.5 -152.5t124.5 -60.5t124.5 60.5t44.5 152.5t-44.5 152.5t-124.5 60.5t-124.5 -60.5t-44.5 -152.5zM226 566l93 144h79l-126 -144h-46z" />
    <glyph glyph-name="ocircumflex" unicode="&#xf4;" 
d="M40 255q0 113 60.5 190t177.5 77t177.5 -77t60.5 -190t-60.5 -190t-177.5 -77t-177.5 77t-60.5 190zM109 255q0 -92 44.5 -152.5t124.5 -60.5t124.5 60.5t44.5 152.5t-44.5 152.5t-124.5 60.5t-124.5 -60.5t-44.5 -152.5zM147 566l93 144h82l93 -144h-46l-88 102
l-88 -102h-46z" />
    <glyph glyph-name="otilde" unicode="&#xf5;" 
d="M40 255q0 113 60.5 190t177.5 77t177.5 -77t60.5 -190t-60.5 -190t-177.5 -77t-177.5 77t-60.5 190zM109 255q0 -92 44.5 -152.5t124.5 -60.5t124.5 60.5t44.5 152.5t-44.5 152.5t-124.5 60.5t-124.5 -60.5t-44.5 -152.5zM179 589h-36q8 37 28.5 63.5t52.5 26.5
q23 0 61 -12q41 -13 44 -13q17 0 31 9t18 25h37q-7 -48 -32 -68t-51 -20q-23 0 -62 13q-36 12 -47 12q-18 0 -27.5 -8.5t-16.5 -27.5z" />
    <glyph glyph-name="odieresis" unicode="&#xf6;" 
d="M40 255q0 113 60.5 190t177.5 77t177.5 -77t60.5 -190t-60.5 -190t-177.5 -77t-177.5 77t-60.5 190zM109 255q0 -92 44.5 -152.5t124.5 -60.5t124.5 60.5t44.5 152.5t-44.5 152.5t-124.5 60.5t-124.5 -60.5t-44.5 -152.5zM330 598v84h75v-84h-75zM159 598v84h75v-84h-75z
" />
    <glyph glyph-name="divide" unicode="&#xf7;" horiz-adv-x="600" 
d="M46 219v69h507v-69h-507zM236 450q0 26 19 45t45 19t45 -19t19 -45q0 -24 -19.5 -44t-44.5 -20q-26 0 -45 19t-19 45zM236 57q0 26 19 45t45 19t45 -19.5t19 -44.5q0 -24 -19.5 -44t-44.5 -20q-26 0 -45 19.5t-19 44.5z" />
    <glyph glyph-name="oslash" unicode="&#xf8;" 
d="M139 127l254 292q-46 49 -115 49q-80 0 -124.5 -60.5t-44.5 -152.5q0 -74 30 -128zM419 380l-253 -291q44 -47 112 -47q80 0 124.5 60.5t44.5 152.5q0 73 -28 125zM502 545l35 -29l-73 -84q52 -68 52 -177q0 -113 -60.5 -190t-177.5 -77q-93 0 -154 53l-70 -81l-35 29
l75 86q-54 72 -54 180q0 113 60.5 190t177.5 77q98 0 156 -56z" />
    <glyph glyph-name="ugrave" unicode="&#xf9;" 
d="M477 510v-390q0 -79 4 -120h-61v91h-2q-21 -45 -57.5 -74t-107.5 -29q-90 0 -132 53t-42 143v326h63v-310q0 -158 121 -158q41 0 71.5 16.5t47 45t24.5 59.5t8 65v282h63zM243 710l93 -144h-46l-126 144h79z" />
    <glyph glyph-name="uacute" unicode="&#xfa;" 
d="M477 510v-390q0 -79 4 -120h-61v91h-2q-21 -45 -57.5 -74t-107.5 -29q-90 0 -132 53t-42 143v326h63v-310q0 -158 121 -158q41 0 71.5 16.5t47 45t24.5 59.5t8 65v282h63zM223 566l93 144h79l-126 -144h-46z" />
    <glyph glyph-name="ucircumflex" unicode="&#xfb;" 
d="M477 510v-390q0 -79 4 -120h-61v91h-2q-21 -45 -57.5 -74t-107.5 -29q-90 0 -132 53t-42 143v326h63v-310q0 -158 121 -158q41 0 71.5 16.5t47 45t24.5 59.5t8 65v282h63zM145 566l93 144h82l93 -144h-46l-88 102l-88 -102h-46z" />
    <glyph glyph-name="udieresis" unicode="&#xfc;" 
d="M477 510v-390q0 -79 4 -120h-61v91h-2q-21 -45 -57.5 -74t-107.5 -29q-90 0 -132 53t-42 143v326h63v-310q0 -158 121 -158q41 0 71.5 16.5t47 45t24.5 59.5t8 65v282h63zM328 598v84h75v-84h-75zM157 598v84h75v-84h-75z" />
    <glyph glyph-name="yacute" unicode="&#xfd;" horiz-adv-x="444" 
d="M78 510l143 -425h1l147 425h66l-204 -586q-48 -140 -131 -140q-34 0 -68 8l6 54q24 -8 47 -8q37 0 55.5 26.5t36.5 84.5l13 45l-181 516h69zM168 566l93 144h79l-126 -144h-46z" />
    <glyph glyph-name="thorn" unicode="&#xfe;" 
d="M73 -210v960h63v-333h2q45 105 159 105q108 0 159 -72t51 -195q0 -118 -54.5 -192.5t-155.5 -74.5q-60 0 -98 25.5t-61 79.5h-2v-303h-63zM438 255q0 40 -7 75.5t-23 67.5t-47 51t-74 19q-53 0 -88.5 -35t-49 -81t-13.5 -97t13.5 -97t49 -81t88.5 -35q43 0 74 19t47 51
t23 67.5t7 75.5z" />
    <glyph glyph-name="ydieresis" unicode="&#xff;" horiz-adv-x="444" 
d="M78 510l143 -425h1l147 425h66l-204 -586q-48 -140 -131 -140q-34 0 -68 8l6 54q24 -8 47 -8q37 0 55.5 26.5t36.5 84.5l13 45l-181 516h69zM272 598v84h75v-84h-75zM101 598v84h75v-84h-75z" />
    <glyph glyph-name="Amacron" unicode="&#x100;" horiz-adv-x="667" 
d="M13 0l286 698h78l277 -698h-72l-75 187h-352l-75 -187h-67zM484 247l-151 385l-152 -385h303zM217 768v54h244v-54h-244z" />
    <glyph glyph-name="amacron" unicode="&#x101;" horiz-adv-x="500" 
d="M372 0v82h-2q-20 -44 -66 -69t-96 -25q-51 0 -87 15.5t-52 40t-22.5 46t-6.5 42.5q0 41 13.5 72.5t39.5 50t53.5 31t68 17.5t69.5 6.5t70 1.5h12v26q0 67 -27 99t-89 32q-84 0 -150 -42v61q72 35 150 35q94 0 136.5 -45t42.5 -145v-225q0 -72 5 -107h-62zM366 226v31h-18
q-49 0 -84.5 -4t-74.5 -15.5t-59.5 -37.5t-20.5 -66q0 -47 29.5 -69.5t76.5 -22.5q42 0 72.5 14.5t45 33.5t22.5 48.5t9.5 46.5t1.5 41zM127 614v54h244v-54h-244z" />
    <glyph glyph-name="Abreve" unicode="&#x102;" horiz-adv-x="667" 
d="M13 0l286 698h78l277 -698h-72l-75 187h-352l-75 -187h-67zM484 247l-151 385l-152 -385h303zM213 871h30q10 -31 37 -43q25 -13 56 -13q32 0 58 13q25 12 35 43h30q-6 -50 -38 -82q-31 -34 -85 -34q-53 0 -84 34q-32 32 -39 82z" />
    <glyph glyph-name="abreve" unicode="&#x103;" horiz-adv-x="500" 
d="M372 0v82h-2q-20 -44 -66 -69t-96 -25q-51 0 -87 15.5t-52 40t-22.5 46t-6.5 42.5q0 41 13.5 72.5t39.5 50t53.5 31t68 17.5t69.5 6.5t70 1.5h12v26q0 67 -27 99t-89 32q-84 0 -150 -42v61q72 35 150 35q94 0 136.5 -45t42.5 -145v-225q0 -72 5 -107h-62zM366 226v31h-18
q-49 0 -84.5 -4t-74.5 -15.5t-59.5 -37.5t-20.5 -66q0 -47 29.5 -69.5t76.5 -22.5q42 0 72.5 14.5t45 33.5t22.5 48.5t9.5 46.5t1.5 41zM124 699h30q16 -56 93 -56t93 56h30q-7 -52 -39.5 -84t-83.5 -32t-83.5 32t-39.5 84z" />
    <glyph glyph-name="Aogonek" unicode="&#x104;" horiz-adv-x="667" 
d="M13 0l286 698h78l277 -698h-40q-51 -40 -69 -69q-17 -31 -17 -55q1 -37 45 -40q37 2 65 27l14 -8q-8 -15 -29 -31q-25 -22 -70 -24q-34 -1 -60 14q-27 19 -28 49q0 25 15 48q14 21 33 39q46 37 73 50h-4l-75 187h-352l-75 -187h-67zM333 632l-152 -385h303z" />
    <glyph glyph-name="aogonek" unicode="&#x105;" horiz-adv-x="500" 
d="M372 0v82h-2q-23 -45 -67 -69q-44 -23 -95 -25q-55 2 -86 17q-33 14 -52 38q-32 50 -30 89q0 64 31 101q29 36 77 53q50 18 102 22q54 3 104 3h12v26q3 131 -116 131q-80 2 -150 -42v61q72 34 150 35q91 1 135.5 -46.5t43.5 -143.5v-225q-1 -54 5 -107h-31
q-51 -40 -69 -69q-17 -31 -17 -55q1 -37 45 -40q37 2 65 27l14 -8q-8 -15 -29 -31q-25 -22 -70 -24q-34 -1 -60 14q-27 19 -28 49q0 25 15 48q13 21 33 39q46 37 73 50h-3zM366 226v31h-18q-28 0 -82 -2q-47 -5 -78 -17q-36 -12 -56 -37q-23 -26 -23 -67q0 -49 32 -70
q29 -22 74 -22q56 0 87 22q31 21 45 50q16 33 17 61q2 42 2 51z" />
    <glyph glyph-name="Cacute" unicode="&#x106;" horiz-adv-x="667" 
d="M569 684l-4 -64q-57 30 -156 30q-133 0 -208 -84t-75 -217q0 -136 74 -218.5t209 -82.5q106 0 156 30l4 -60q-50 -30 -160 -30q-163 0 -257.5 98.5t-94.5 262.5q0 161 96 261t256 100q111 0 160 -26zM339 738l93 144h79l-126 -144h-46z" />
    <glyph glyph-name="cacute" unicode="&#x107;" horiz-adv-x="444" 
d="M416 502l-5 -60q-59 26 -109 26q-90 0 -141 -59t-51 -154q0 -90 50.5 -151.5t134.5 -61.5q53 0 115 23l6 -59q-52 -18 -131 -18q-117 0 -180.5 76.5t-63.5 190.5q0 118 69.5 192.5t182.5 74.5q63 0 123 -20zM224 572l93 144h79l-126 -144h-46z" />
    <glyph glyph-name="Ccaron" unicode="&#x10c;" horiz-adv-x="667" 
d="M569 684l-4 -64q-57 30 -156 30q-133 0 -208 -84t-75 -217q0 -136 74 -218.5t209 -82.5q106 0 156 30l4 -60q-50 -30 -160 -30q-163 0 -257.5 98.5t-94.5 262.5q0 161 96 261t256 100q111 0 160 -26zM523 882l-93 -144h-82l-93 144h46l88 -102l88 102h46z" />
    <glyph glyph-name="ccaron" unicode="&#x10d;" horiz-adv-x="444" 
d="M416 502l-5 -60q-59 26 -109 26q-90 0 -141 -59t-51 -154q0 -90 50.5 -151.5t134.5 -61.5q53 0 115 23l6 -59q-52 -18 -131 -18q-117 0 -180.5 76.5t-63.5 190.5q0 118 69.5 192.5t182.5 74.5q63 0 123 -20zM408 716l-93 -144h-82l-93 144h46l88 -102l88 102h46z" />
    <glyph glyph-name="Dcaron" unicode="&#x10e;" horiz-adv-x="667" 
d="M149 638v-578h57q327 0 327 294q0 150 -77.5 217t-205.5 67h-101zM80 0v698h173q179 0 264 -93t85 -255q0 -92 -29.5 -161t-84 -109.5t-126 -60t-160.5 -19.5h-122zM414 882l-93 -144h-82l-93 144h46l88 -102l88 102h46z" />
    <glyph glyph-name="dcaron" unicode="&#x10f;" horiz-adv-x="604" 
d="M483 750v-750h-63v81h-2q-49 -93 -159 -93q-101 0 -155.5 74.5t-54.5 192.5q0 123 51 195t159 72q65 0 106.5 -34t52.5 -64h2v326h63zM118 255q0 -40 7 -75.5t23 -67.5t47 -51t74 -19q53 0 88.5 35t49 81t13.5 97t-13.5 97t-49 81t-88.5 35q-43 0 -74 -19t-47 -51
t-23 -67.5t-7 -75.5zM544 545l18 164h61l-34 -164h-45z" />
    <glyph glyph-name="Dcroat" unicode="&#x110;" horiz-adv-x="667" 
d="M149 638v-249h213v-60h-213v-269h57q320 -8 327 294q-2 165 -92 226q-93 59 -246 58h-46zM80 389v309h118q397 6 404 -348q-1 -186 -113 -269q-109 -81 -287 -81h-122v329h-69v60h69z" />
    <glyph glyph-name="dcroat" unicode="&#x111;" horiz-adv-x="564" 
d="M254 612v46h166v92h63v-92h73v-46h-73v-612h-63v81h-2q-50 -95 -159 -93q-104 1 -157 77t-53 190q-1 117 49 192q49 73 161 75q36 0 66 -11q26 -10 48 -28q39 -34 45 -59h2v188h-166zM118 255q0 -38 7 -73q8 -39 24 -70q17 -29 47 -49q28 -21 73 -21q42 0 72 21
q28 19 46 51q35 68 33 141q0 39 -7 74t-26 68q-19 34 -46 52q-29 19 -72 19q-45 0 -73 -19q-29 -18 -47 -50q-16 -30 -24 -68q-7 -35 -7 -76z" />
    <glyph glyph-name="Emacron" unicode="&#x112;" horiz-adv-x="500" 
d="M86 0v698h342v-60h-273v-249h259v-60h-259v-269h285v-60h-354zM138 768v54h244v-54h-244z" />
    <glyph glyph-name="emacron" unicode="&#x113;" horiz-adv-x="500" 
d="M421 80v-64q-68 -28 -148 -28q-120 0 -176 72t-56 195q0 118 59.5 192.5t155.5 74.5q102 0 152.5 -71t50.5 -182v-32h-349q0 -85 44 -140t124 -55q34 0 77 11.5t66 26.5zM110 291h280q0 74 -32 125.5t-98 51.5t-108 -54.5t-42 -122.5zM136 614v54h244v-54h-244z" />
    <glyph glyph-name="Edotaccent" unicode="&#x116;" horiz-adv-x="500" 
d="M86 0v698h342v-60h-273v-249h259v-60h-259v-269h285v-60h-354zM220 758v84h75v-84h-75z" />
    <glyph glyph-name="edotaccent" unicode="&#x117;" horiz-adv-x="500" 
d="M421 80v-64q-68 -28 -148 -28q-120 0 -176 72t-56 195q0 118 59.5 192.5t155.5 74.5q102 0 152.5 -71t50.5 -182v-32h-349q0 -85 44 -140t124 -55q34 0 77 11.5t66 26.5zM110 291h280q0 74 -32 125.5t-98 51.5t-108 -54.5t-42 -122.5zM222 604v84h75v-84h-75z" />
    <glyph glyph-name="Eogonek" unicode="&#x118;" horiz-adv-x="500" 
d="M86 0v698h342v-60h-273v-249h259v-60h-259v-269h285v-60h-47q-51 -40 -69 -69q-17 -31 -17 -55q1 -37 45 -40q37 2 65 27l14 -8q-8 -15 -29 -31q-25 -22 -70 -24q-34 -1 -60 14q-27 19 -28 49q0 25 15 48q13 21 33 39q46 37 73 50h-279z" />
    <glyph glyph-name="eogonek" unicode="&#x119;" horiz-adv-x="500" 
d="M421 80v-64q-55 -21 -120 -26q-41 -35 -55 -59q-17 -31 -17 -55q1 -37 45 -40q37 2 65 27l14 -8q-8 -15 -29 -31q-25 -22 -70 -24q-34 -1 -60 14q-27 19 -28 49q0 25 15 48q13 21 33 39q31 26 51 38q-118 4 -171 77q-54 74 -53 190q2 120 60 193q56 72 155 74
q106 -2 156 -75q47 -73 47 -178v-32h-349q0 -84 43 -137q42 -56 125 -58q39 0 78 13q38 10 65 25zM110 291h280q0 69 -29 122q-32 54 -101 55q-68 -1 -109 -56t-41 -121z" />
    <glyph glyph-name="Ecaron" unicode="&#x11a;" horiz-adv-x="500" 
d="M86 0v698h342v-60h-273v-249h259v-60h-259v-269h285v-60h-354zM394 882l-93 -144h-82l-93 144h46l88 -102l88 102h46z" />
    <glyph glyph-name="ecaron" unicode="&#x11b;" horiz-adv-x="500" 
d="M421 80v-64q-68 -28 -148 -28q-120 0 -176 72t-56 195q0 118 59.5 192.5t155.5 74.5q102 0 152.5 -71t50.5 -182v-32h-349q0 -85 44 -140t124 -55q34 0 77 11.5t66 26.5zM110 291h280q0 74 -32 125.5t-98 51.5t-108 -54.5t-42 -122.5zM388 716l-93 -144h-82l-93 144h46
l88 -102l88 102h46z" />
    <glyph glyph-name="Gbreve" unicode="&#x11e;" horiz-adv-x="722" 
d="M564 73v245h-162v60h231v-347q-98 -43 -217 -43q-163 0 -257.5 98.5t-94.5 262.5q0 161 96 261t256 100q122 0 187 -33l-8 -64q-67 37 -179 37q-133 0 -208 -84t-75 -217q0 -136 74 -218.5t209 -82.5q107 0 148 25zM277 871h30q10 -31 37 -43q25 -13 56 -13q32 0 58 13
q25 12 35 43h30q-6 -50 -38 -82q-31 -34 -85 -34q-53 0 -84 34q-32 32 -39 82z" />
    <glyph glyph-name="gbreve" unicode="&#x11f;" 
d="M118 255q0 -84 36 -142.5t111 -58.5q54 0 90.5 32t50.5 75.5t14 93.5q0 213 -151 213q-43 0 -74 -19t-47 -51t-23 -67.5t-7 -75.5zM483 510v-468q0 -116 -57.5 -187t-181.5 -71q-66 0 -154 27l5 63q70 -36 150 -36q47 0 80.5 14t51.5 35.5t28.5 58.5t13 70.5t2.5 83.5h-2
q-46 -100 -155 -100q-47 0 -84.5 16t-61.5 41t-40 59.5t-22.5 68.5t-6.5 70q0 123 51 195t159 72q56 0 91 -13.5t68 -56.5h2v58h63zM151 699h30q16 -56 93 -56t93 56h30q-7 -52 -39.5 -84t-83.5 -32t-83.5 32t-39.5 84z" />
    <glyph glyph-name="Gcommaaccent" unicode="&#x122;" horiz-adv-x="722" 
d="M564 73v245h-162v60h231v-347q-98 -43 -217 -43q-163 0 -257.5 98.5t-94.5 262.5q0 161 96 261t256 100q122 0 187 -33l-8 -64q-67 37 -179 37q-133 0 -208 -84t-75 -217q0 -136 74 -218.5t209 -82.5q107 0 148 25zM334 -217l38 144h74l-55 -144h-57z" />
    <glyph glyph-name="gcommaaccent" unicode="&#x123;" 
d="M118 255q0 -84 36 -142.5t111 -58.5q54 0 90.5 32t50.5 75.5t14 93.5q0 213 -151 213q-43 0 -74 -19t-47 -51t-23 -67.5t-7 -75.5zM483 510v-468q0 -116 -57.5 -187t-181.5 -71q-66 0 -154 27l5 63q70 -36 150 -36q47 0 80.5 14t51.5 35.5t28.5 58.5t13 70.5t2.5 83.5h-2
q-46 -100 -155 -100q-47 0 -84.5 16t-61.5 41t-40 59.5t-22.5 68.5t-6.5 70q0 123 51 195t159 72q56 0 91 -13.5t68 -56.5h2v58h63zM343 716l-38 -144h-71l55 144h54z" />
    <glyph glyph-name="Imacron" unicode="&#x12a;" horiz-adv-x="222" 
d="M77 0v698h69v-698h-69zM-10 768v54h244v-54h-244z" />
    <glyph glyph-name="imacron" unicode="&#x12b;" horiz-adv-x="222" 
d="M79 0v510h63v-510h-63zM-10 614v54h244v-54h-244z" />
    <glyph glyph-name="Iogonek" unicode="&#x12e;" horiz-adv-x="222" 
d="M77 0v698h69v-698q-51 -40 -69 -69q-17 -31 -17 -55q1 -37 45 -40q37 2 65 27l14 -8q-8 -15 -29 -31q-25 -22 -70 -24q-34 -1 -60 14q-27 19 -28 49q0 25 15 48q14 21 33 39q46 37 73 50h-41z" />
    <glyph glyph-name="iogonek" unicode="&#x12f;" horiz-adv-x="222" 
d="M79 0v510h63v-510q-51 -40 -69 -69q-17 -31 -17 -55q1 -37 45 -40q37 2 65 27l14 -8q-8 -15 -29 -31q-25 -22 -70 -24q-34 -1 -60 14q-27 19 -28 49q0 25 15 48q14 21 33 39q46 37 73 50h-35zM142 730v-84h-63v84h63z" />
    <glyph glyph-name="Idotaccent" unicode="&#x130;" horiz-adv-x="222" 
d="M77 0v698h69v-698h-69zM74 758v84h75v-84h-75z" />
    <glyph glyph-name="dotlessi" unicode="&#x131;" horiz-adv-x="222" 
d="M79 0v510h63v-510h-63z" />
    <glyph glyph-name="Kcommaaccent" unicode="&#x136;" horiz-adv-x="611" 
d="M95 0v698h69v-313l314 313h90l-338 -329l367 -369h-95l-338 349v-349h-69zM252 -217l38 144h74l-55 -144h-57z" />
    <glyph glyph-name="kcommaaccent" unicode="&#x137;" horiz-adv-x="500" 
d="M79 0v750h63v-449l228 209h81l-249 -226l279 -284h-87l-252 262v-262h-63zM195 -217l38 144h74l-55 -144h-57z" />
    <glyph glyph-name="Lacute" unicode="&#x139;" horiz-adv-x="444" 
d="M80 0v698h69v-638h280v-60h-349zM98 738l93 144h79l-126 -144h-46z" />
    <glyph glyph-name="lacute" unicode="&#x13a;" horiz-adv-x="222" 
d="M79 0v750h63v-750h-63zM60 783l93 144h79l-126 -144h-46z" />
    <glyph glyph-name="Lcommaaccent" unicode="&#x13b;" horiz-adv-x="444" 
d="M80 0v698h69v-638h280v-60h-349zM177 -217l38 144h74l-55 -144h-57z" />
    <glyph glyph-name="lcommaaccent" unicode="&#x13c;" horiz-adv-x="222" 
d="M79 0v750h63v-750h-63zM35 -217l38 144h74l-55 -144h-57z" />
    <glyph glyph-name="Lcaron" unicode="&#x13d;" horiz-adv-x="444" 
d="M80 0v698h69v-638h280v-60h-349zM233 545l18 164h61l-34 -164h-45z" />
    <glyph glyph-name="lcaron" unicode="&#x13e;" horiz-adv-x="270" 
d="M79 0v750h63v-750h-63zM203 545l18 164h61l-34 -164h-45z" />
    <glyph glyph-name="Lslash" unicode="&#x141;" horiz-adv-x="444" 
d="M80 311v387h69v-338l175 123v-68l-175 -124v-231h280v-60h-349v242l-72 -51v69z" />
    <glyph glyph-name="lslash" unicode="&#x142;" horiz-adv-x="222" 
d="M79 0v342l-66 -53v69l66 53v339h63v-289l66 53v-69l-66 -53v-392h-63z" />
    <glyph glyph-name="Nacute" unicode="&#x143;" horiz-adv-x="667" 
d="M77 0v698h87l355 -614h2v614h69v-698h-93l-349 602h-2v-602h-69zM306 738l93 144h79l-126 -144h-46z" />
    <glyph glyph-name="nacute" unicode="&#x144;" 
d="M79 0v390q0 79 -4 120h61v-91h2q21 45 57.5 74t107.5 29q90 0 132 -53t42 -143v-326h-63v310q0 158 -121 158q-41 0 -71.5 -16.5t-47 -45t-24.5 -59.5t-8 -65v-282h-63zM235 572l93 144h79l-126 -144h-46z" />
    <glyph glyph-name="Ncommaaccent" unicode="&#x145;" horiz-adv-x="667" 
d="M77 0v698h87l355 -614h2v614h69v-698h-93l-349 602h-2v-602h-69zM274 -217l38 144h74l-55 -144h-57z" />
    <glyph glyph-name="ncommaaccent" unicode="&#x146;" 
d="M79 0v390q0 79 -4 120h61v-91h2q21 45 57.5 74t107.5 29q90 0 132 -53t42 -143v-326h-63v310q0 158 -121 158q-41 0 -71.5 -16.5t-47 -45t-24.5 -59.5t-8 -65v-282h-63zM212 -217l38 144h74l-55 -144h-57z" />
    <glyph glyph-name="Ncaron" unicode="&#x147;" horiz-adv-x="667" 
d="M77 0v698h87l355 -614h2v614h69v-698h-93l-349 602h-2v-602h-69zM479 882l-93 -144h-82l-93 144h46l88 -102l88 102h46z" />
    <glyph glyph-name="ncaron" unicode="&#x148;" 
d="M79 0v390q0 79 -4 120h61v-91h2q21 45 57.5 74t107.5 29q90 0 132 -53t42 -143v-326h-63v310q0 158 -121 158q-41 0 -71.5 -16.5t-47 -45t-24.5 -59.5t-8 -65v-282h-63zM414 716l-93 -144h-82l-93 144h46l88 -102l88 102h46z" />
    <glyph glyph-name="Omacron" unicode="&#x14c;" horiz-adv-x="722" 
d="M54 349q-2 152 78 256.5t229 104.5t229 -104.5t78 -256.5q-2 -165 -81 -263t-226 -98t-226 98t-81 263zM361 650q-115 0 -176.5 -89.5t-61.5 -211.5t61.5 -211.5t176.5 -89.5t176.5 89.5t61.5 211.5t-61.5 211.5t-176.5 89.5zM239 768v54h244v-54h-244z" />
    <glyph glyph-name="omacron" unicode="&#x14d;" 
d="M40 255q0 113 60.5 190t177.5 77t177.5 -77t60.5 -190t-60.5 -190t-177.5 -77t-177.5 77t-60.5 190zM109 255q0 -92 44.5 -152.5t124.5 -60.5t124.5 60.5t44.5 152.5t-44.5 152.5t-124.5 60.5t-124.5 -60.5t-44.5 -152.5zM157 614v54h244v-54h-244z" />
    <glyph glyph-name="Ohungarumlaut" unicode="&#x150;" horiz-adv-x="722" 
d="M54 349q-2 152 78 256.5t229 104.5t229 -104.5t78 -256.5q-2 -165 -81 -263t-226 -98t-226 98t-81 263zM361 650q-115 0 -176.5 -89.5t-61.5 -211.5t61.5 -211.5t176.5 -89.5t176.5 89.5t61.5 211.5t-61.5 211.5t-176.5 89.5zM404 738l93 144h79l-126 -144h-46zM234 738
l93 144h79l-126 -144h-46z" />
    <glyph glyph-name="ohungarumlaut" unicode="&#x151;" 
d="M40 255q0 113 60.5 190t177.5 77t177.5 -77t60.5 -190t-60.5 -190t-177.5 -77t-177.5 77t-60.5 190zM109 255q0 -92 44.5 -152.5t124.5 -60.5t124.5 60.5t44.5 152.5t-44.5 152.5t-124.5 60.5t-124.5 -60.5t-44.5 -152.5zM319 572l93 144h79l-126 -144h-46zM149 572
l93 144h79l-126 -144h-46z" />
    <glyph glyph-name="OE" unicode="&#x152;" horiz-adv-x="889" 
d="M817 698v-60h-271v-249h257v-60h-257v-269h283v-60h-330q-12 0 -26 -0.5t-31.5 -1.5t-26.5 -1q-56 -4 -84 -4q-72 0 -127 30.5t-86.5 82.5t-47.5 113.5t-16 129.5t16 129.5t47.5 113.5t86.5 82.5t127 30.5q12 0 26 -0.5t31.5 -1.5t26.5 -1q56 -4 84 -4h318zM477 60v578
q-111 6 -127 6q-13 0 -23.5 -0.5t-35.5 -6.5t-45 -16t-44 -32t-40.5 -52t-27.5 -79t-11 -109t11 -109t27.5 -79t40.5 -52t44 -32t45 -16t35.5 -6.5t23.5 -0.5q53 0 127 6z" />
    <glyph glyph-name="oe" unicode="&#x153;" horiz-adv-x="889" 
d="M503 291h280q0 73 -34 125t-96 52q-71 0 -110.5 -48.5t-39.5 -128.5zM852 237h-349q0 -85 44 -140t124 -55q34 0 77 11.5t66 26.5v-64q-68 -28 -148 -28q-141 0 -196 104q-60 -104 -196 -104q-117 0 -177.5 77t-60.5 190t60.5 190t177.5 77q141 0 192 -110
q57 110 183 110q101 0 152 -72t51 -179v-34zM105 255q0 -92 44.5 -152.5t124.5 -60.5q160 0 160 213t-160 213q-80 0 -124.5 -60.5t-44.5 -152.5z" />
    <glyph glyph-name="Racute" unicode="&#x154;" 
d="M157 638v-249h73q44 0 81.5 11t65 41t27.5 76q0 33 -10 56t-24 35.5t-39.5 19.5t-47 8.5t-55.5 1.5h-71zM88 0v698h180q205 0 205 -181q0 -65 -44 -108.5t-111 -52.5v-2q27 -3 44.5 -16t24 -25t21.5 -43l119 -270h-76l-101 236q-28 63 -54 78t-82 15h-57v-329h-69z
M210 738l93 144h79l-126 -144h-46z" />
    <glyph glyph-name="racute" unicode="&#x155;" horiz-adv-x="333" 
d="M79 0v396q0 77 -4 114h63v-98h2q19 48 52.5 79t78.5 31q22 0 44 -6v-66q-19 6 -46 6q-47 0 -77 -33.5t-40 -76t-10 -94.5v-252h-63zM156 572l93 144h79l-126 -144h-46z" />
    <glyph glyph-name="Rcommaaccent" unicode="&#x156;" 
d="M157 638v-249h73q44 0 81.5 11t65 41t27.5 76q0 33 -10 56t-24 35.5t-39.5 19.5t-47 8.5t-55.5 1.5h-71zM88 0v698h180q205 0 205 -181q0 -65 -44 -108.5t-111 -52.5v-2q27 -3 44.5 -16t24 -25t21.5 -43l119 -270h-76l-101 236q-28 63 -54 78t-82 15h-57v-329h-69z
M213 -217l38 144h74l-55 -144h-57z" />
    <glyph glyph-name="rcommaaccent" unicode="&#x157;" horiz-adv-x="333" 
d="M79 0v396q0 77 -4 114h63v-98h2q19 48 52.5 79t78.5 31q22 0 44 -6v-66q-19 6 -46 6q-47 0 -77 -33.5t-40 -76t-10 -94.5v-252h-63zM36 -217l38 144h74l-55 -144h-57z" />
    <glyph glyph-name="Rcaron" unicode="&#x158;" 
d="M157 638v-249h73q44 0 81.5 11t65 41t27.5 76q0 33 -10 56t-24 35.5t-39.5 19.5t-47 8.5t-55.5 1.5h-71zM88 0v698h180q205 0 205 -181q0 -65 -44 -108.5t-111 -52.5v-2q27 -3 44.5 -16t24 -25t21.5 -43l119 -270h-76l-101 236q-28 63 -54 78t-82 15h-57v-329h-69z
M390 882l-93 -144h-82l-93 144h46l88 -102l88 102h46z" />
    <glyph glyph-name="rcaron" unicode="&#x159;" horiz-adv-x="333" 
d="M79 0v396q0 77 -4 114h63v-98h2q19 48 52.5 79t78.5 31q22 0 44 -6v-66q-19 6 -46 6q-47 0 -77 -33.5t-40 -76t-10 -94.5v-252h-63zM338 716l-93 -144h-82l-93 144h46l88 -102l88 102h46z" />
    <glyph glyph-name="Sacute" unicode="&#x15a;" horiz-adv-x="500" 
d="M60 18l7 71q65 -41 154 -41q69 0 113 36t44 107q0 37 -33 69t-80 57l-94 52t-80 67.5t-33 91.5q0 82 63 132t158 50q76 0 137 -23l-11 -63q-47 26 -127 26q-62 0 -106.5 -29t-44.5 -91q0 -38 33 -69t80 -55t94 -51t80 -70.5t33 -99.5q0 -67 -35.5 -113t-85.5 -65
t-108 -19q-89 0 -158 30zM212 738l93 144h79l-126 -144h-46z" />
    <glyph glyph-name="sacute" unicode="&#x15b;" horiz-adv-x="389" 
d="M34 12l6 62q64 -32 133 -32q47 0 80 24.5t33 66.5q0 33 -25 57.5t-61 41l-72.5 34t-61.5 47t-25 70.5q0 71 48 105t118 34q65 0 126 -23l-6 -55q-53 24 -113 24q-110 0 -110 -85q0 -26 26 -46t63 -35.5t73.5 -35t62.5 -53.5t26 -80q0 -51 -29.5 -85t-67.5 -47t-81 -13
q-83 0 -143 24zM157 572l93 144h79l-126 -144h-46z" />
    <glyph glyph-name="Scedilla" unicode="&#x15e;" horiz-adv-x="500" 
d="M60 18l7 71q59 -41 154 -41q66 0 112 35q43 35 45 108q-2 52 -50 86q-20 16 -51 34l-32 17t-27 15q-27 15 -58 36q-33 21 -52 40q-48 43 -50 109q1 85 65 134q61 46 156 48q31 0 64 -4q39 -6 73 -19l-11 -63q-52 26 -127 26q-25 0 -53 -5q-27 -6 -49 -21q-22 -14 -35 -36
q-14 -25 -14 -58q0 -24 14 -46q13 -20 36 -37q22 -16 52 -32l58 -33q65 -31 110 -76q25 -25 37 -52q13 -29 13 -69q-2 -104 -73 -151q-57 -36 -126 -44l-39 -48l2 -2q23 8 46 8q37 0 59 -17t22 -50q0 -41 -35 -61t-83 -20q-55 0 -94 16l11 28q45 -14 72 -14q32 0 48.5 10
t16.5 36q0 20 -14 31t-35 11t-51 -13l-11 12l54 71q-101 1 -157 30z" />
    <glyph glyph-name="scedilla" unicode="&#x15f;" horiz-adv-x="389" 
d="M34 12l6 62q57 -30 133 -32q48 0 80 25q31 23 33 66q-2 46 -37 71q-37 26 -85 45l-44 23q-19 11 -40 27q-19 19 -28 37q-11 20 -11 47q2 77 52 108q49 31 114 31q26 0 57 -4q37 -6 69 -19l-6 -55q-56 23 -113 24q-50 0 -78 -18q-16 -10 -23 -25q-9 -17 -9 -42
q0 -16 11 -30q10 -13 29 -24q16 -9 41 -21q30 -14 45 -22q48 -21 87 -56q36 -34 38 -97q0 -41 -16 -67q-16 -27 -43 -45q-48 -27 -103 -32l-38 -47l2 -2q23 8 46 8q37 0 59 -17t22 -50q0 -41 -35 -61t-83 -20q-55 0 -94 16l11 28q45 -14 72 -14q32 0 48.5 10t16.5 36
q0 20 -14 31t-35 11t-51 -13l-11 12l54 71q-67 2 -129 24z" />
    <glyph glyph-name="Scaron" unicode="&#x160;" horiz-adv-x="500" 
d="M60 18l7 71q65 -41 154 -41q69 0 113 36t44 107q0 37 -33 69t-80 57l-94 52t-80 67.5t-33 91.5q0 82 63 132t158 50q76 0 137 -23l-11 -63q-47 26 -127 26q-62 0 -106.5 -29t-44.5 -91q0 -38 33 -69t80 -55t94 -51t80 -70.5t33 -99.5q0 -67 -35.5 -113t-85.5 -65
t-108 -19q-89 0 -158 30zM386 870l-93 -144h-82l-93 144h46l88 -102l88 102h46z" />
    <glyph glyph-name="scaron" unicode="&#x161;" horiz-adv-x="389" 
d="M34 12l6 62q64 -32 133 -32q47 0 80 24.5t33 66.5q0 33 -25 57.5t-61 41l-72.5 34t-61.5 47t-25 70.5q0 71 48 105t118 34q65 0 126 -23l-6 -55q-53 24 -113 24q-110 0 -110 -85q0 -26 26 -46t63 -35.5t73.5 -35t62.5 -53.5t26 -80q0 -51 -29.5 -85t-67.5 -47t-81 -13
q-83 0 -143 24zM329 710l-93 -144h-82l-93 144h46l88 -102l88 102h46z" />
    <glyph glyph-name="Tcommaaccent" unicode="&#x162;" horiz-adv-x="500" 
d="M216 0v638h-206v60h481v-60h-206v-638h-69zM174 -217l38 144h74l-55 -144h-57z" />
    <glyph glyph-name="tcommaaccent" unicode="&#x163;" horiz-adv-x="333" 
d="M299 510v-54h-116v-330q0 -84 68 -84q27 0 58 12l4 -52q-35 -14 -77 -14q-33 0 -55 9.5t-34 23t-18.5 38.5t-7.5 45t-1 54v298h-100v54h100v123l63 22v-145h116zM117 -217l38 144h74l-55 -144h-57z" />
    <glyph glyph-name="Tcaron" unicode="&#x164;" horiz-adv-x="500" 
d="M216 0v638h-206v60h481v-60h-206v-638h-69zM384 882l-93 -144h-82l-93 144h46l88 -102l88 102h46z" />
    <glyph glyph-name="tcaron" unicode="&#x165;" horiz-adv-x="339" 
d="M299 510v-54h-116v-330q0 -84 68 -84q27 0 58 12l4 -52q-35 -14 -77 -14q-33 0 -55 9.5t-34 23t-18.5 38.5t-7.5 45t-1 54v298h-100v54h100v123l63 22v-145h116zM247 545l18 164h61l-34 -164h-45z" />
    <glyph glyph-name="Umacron" unicode="&#x16a;" horiz-adv-x="667" 
d="M587 698v-454q0 -73 -24.5 -126t-64.5 -80t-80.5 -38.5t-83.5 -11.5t-83.5 11.5t-80.5 38.5t-64.5 80t-24.5 126v454h69v-454q0 -88 48 -142t136 -54t136 54t48 142v454h69zM219 768v54h244v-54h-244z" />
    <glyph glyph-name="umacron" unicode="&#x16b;" 
d="M477 510v-390q0 -79 4 -120h-61v91h-2q-21 -45 -57.5 -74t-107.5 -29q-90 0 -132 53t-42 143v326h63v-310q0 -158 121 -158q41 0 71.5 16.5t47 45t24.5 59.5t8 65v282h63zM157 614v54h244v-54h-244z" />
    <glyph glyph-name="Uring" unicode="&#x16e;" horiz-adv-x="667" 
d="M587 698v-454q0 -73 -24.5 -126t-64.5 -80t-80.5 -38.5t-83.5 -11.5t-83.5 11.5t-80.5 38.5t-64.5 80t-24.5 126v454h69v-454q0 -88 48 -142t136 -54t136 54t48 142v454h69zM284 816q0 -26 18 -41q16 -18 42 -18t43 18q17 15 17 41t-17 43q-16 16 -43 16q-26 0 -42 -16
q-18 -17 -18 -43zM248 816q0 43 28 68q27 25 68 27q40 -1 69 -27q25 -25 27 -68q-2 -42 -27 -67q-28 -28 -69 -28t-68 28q-28 25 -28 67z" />
    <glyph glyph-name="uring" unicode="&#x16f;" 
d="M477 510v-390q0 -79 4 -120h-61v91h-2q-21 -45 -57.5 -74t-107.5 -29q-90 0 -132 53t-42 143v326h63v-310q0 -158 121 -158q41 0 71.5 16.5t47 45t24.5 59.5t8 65v282h63zM183 648q0 40 27.5 67.5t68.5 27.5q40 0 68 -27.5t28 -67.5t-27.5 -67.5t-68.5 -27.5t-68.5 27
t-27.5 68zM219 648q0 -25 18 -42t42 -17q26 0 43 17t17 42t-17.5 42t-42.5 17q-24 0 -42 -17.5t-18 -41.5z" />
    <glyph glyph-name="Uhungarumlaut" unicode="&#x170;" horiz-adv-x="667" 
d="M587 698v-454q0 -73 -24.5 -126t-64.5 -80t-80.5 -38.5t-83.5 -11.5t-83.5 11.5t-80.5 38.5t-64.5 80t-24.5 126v454h69v-454q0 -88 48 -142t136 -54t136 54t48 142v454h69zM377 738l93 144h79l-126 -144h-46zM207 738l93 144h79l-126 -144h-46z" />
    <glyph glyph-name="uhungarumlaut" unicode="&#x171;" 
d="M477 510v-390q0 -79 4 -120h-61v91h-2q-21 -45 -57.5 -74t-107.5 -29q-90 0 -132 53t-42 143v326h63v-310q0 -158 121 -158q41 0 71.5 16.5t47 45t24.5 59.5t8 65v282h63zM322 572l93 144h79l-126 -144h-46zM152 572l93 144h79l-126 -144h-46z" />
    <glyph glyph-name="Uogonek" unicode="&#x172;" horiz-adv-x="667" 
d="M411 -137l14 -8q-8 -15 -29 -31q-25 -22 -70 -24q-34 -1 -60 14q-27 19 -28 49q0 25 15 48q13 21 33 39q28 24 52 38h-4q-38 0 -81 12q-44 11 -83 39q-38 29 -63 79q-26 50 -26 126v454h69v-454q0 -87 47 -140q46 -54 137 -56q92 2 138 56q46 52 46 140v454h69v-454
q-1 -76 -24 -126q-25 -50 -63 -79q-39 -29 -82 -39q-23 -6 -43 -9q-41 -35 -57 -60q-17 -31 -17 -55q1 -37 45 -40q37 2 65 27z" />
    <glyph glyph-name="uogonek" unicode="&#x173;" 
d="M477 510v-390q-1 -48 4 -120h-24q-51 -40 -69 -69q-17 -31 -17 -55q1 -37 45 -40q37 2 65 27l14 -8q-8 -15 -29 -31q-25 -22 -70 -24q-34 -1 -60 14q-27 19 -28 49q0 25 15 48q13 21 33 39q46 37 73 50h-9v91h-2q-10 -21 -19 -34q-12 -18 -31 -34q-20 -16 -47 -24
q-30 -11 -68 -11q-94 2 -134 56q-41 55 -40 140v326h63v-310q0 -73 29 -114q29 -44 92 -44q43 0 73 18q29 16 46 44q17 27 25 60q7 29 7 64v282h63z" />
    <glyph glyph-name="Ydieresis" unicode="&#x178;" horiz-adv-x="611" 
d="M271 0v296l-259 402h80l213 -341l219 341h75l-259 -402v-296h-69zM360 758v84h75v-84h-75zM189 758v84h75v-84h-75z" />
    <glyph glyph-name="Zacute" unicode="&#x179;" horiz-adv-x="500" 
d="M21 0v60l364 578h-355v60h428v-60l-362 -578h374v-60h-449zM212 738l93 144h79l-126 -144h-46z" />
    <glyph glyph-name="zacute" unicode="&#x17a;" horiz-adv-x="444" 
d="M32 0v53l307 403h-295v54h368v-54l-307 -402h307v-54h-380zM189 572l93 144h79l-126 -144h-46z" />
    <glyph glyph-name="Zdotaccent" unicode="&#x17b;" horiz-adv-x="500" 
d="M21 0v60l364 578h-355v60h428v-60l-362 -578h374v-60h-449zM217 758v84h75v-84h-75z" />
    <glyph glyph-name="zdotaccent" unicode="&#x17c;" horiz-adv-x="444" 
d="M32 0v53l307 403h-295v54h368v-54l-307 -402h307v-54h-380zM198 604v84h75v-84h-75z" />
    <glyph glyph-name="Zcaron" unicode="&#x17d;" horiz-adv-x="500" 
d="M21 0v60l364 578h-355v60h428v-60l-362 -578h374v-60h-449zM384 870l-93 -144h-82l-93 144h46l88 -102l88 102h46z" />
    <glyph glyph-name="zcaron" unicode="&#x17e;" horiz-adv-x="444" 
d="M32 0v53l307 403h-295v54h368v-54l-307 -402h307v-54h-380zM356 716l-93 -144h-82l-93 144h46l88 -102l88 102h46z" />
    <glyph glyph-name="florin" unicode="&#x192;" 
d="M458 419v-54h-126l-71 -363q-24 -119 -61 -168.5t-117 -49.5q-25 0 -58 10l16 53q42 -9 43 -9q52 0 75 42.5t40 132.5l67 352h-111v54h122l17 91q8 42 18.5 72t29.5 60.5t51 46.5t76 16q30 0 64 -17l-13 -50q-32 13 -56 13q-39 0 -63 -30t-40 -110l-18 -92h115z" />
    <glyph glyph-name="Scommaaccent" unicode="&#x218;" horiz-adv-x="500" 
d="M60 18l7 71q65 -41 154 -41q69 0 113 36t44 107q0 37 -33 69t-80 57l-94 52t-80 67.5t-33 91.5q0 82 63 132t158 50q76 0 137 -23l-11 -63q-47 26 -127 26q-62 0 -106.5 -29t-44.5 -91q0 -38 33 -69t80 -55t94 -51t80 -70.5t33 -99.5q0 -67 -35.5 -113t-85.5 -65
t-108 -19q-89 0 -158 30zM175 -217l38 144h74l-55 -144h-57z" />
    <glyph glyph-name="scommaaccent" unicode="&#x219;" horiz-adv-x="389" 
d="M34 12l6 62q64 -32 133 -32q47 0 80 24.5t33 66.5q0 33 -25 57.5t-61 41l-72.5 34t-61.5 47t-25 70.5q0 71 48 105t118 34q65 0 126 -23l-6 -55q-53 24 -113 24q-110 0 -110 -85q0 -26 26 -46t63 -35.5t73.5 -35t62.5 -53.5t26 -80q0 -51 -29.5 -85t-67.5 -47t-81 -13
q-83 0 -143 24zM124 -217l38 144h74l-55 -144h-57z" />
    <glyph glyph-name="uni021A" unicode="&#x21a;" horiz-adv-x="500" 
d="M216 0v638h-206v60h481v-60h-206v-638h-69zM174 -217l38 144h74l-55 -144h-57z" />
    <glyph glyph-name="uni021B" unicode="&#x21b;" horiz-adv-x="333" 
d="M299 510v-54h-116v-330q0 -84 68 -84q27 0 58 12l4 -52q-35 -14 -77 -14q-33 0 -55 9.5t-34 23t-18.5 38.5t-7.5 45t-1 54v298h-100v54h100v123l63 22v-145h116zM117 -217l38 144h74l-55 -144h-57z" />
    <glyph glyph-name="circumflex" unicode="&#x2c6;" horiz-adv-x="222" 
d="M-23 572l93 144h82l93 -144h-46l-88 102l-88 -102h-46z" />
    <glyph glyph-name="caron" unicode="&#x2c7;" horiz-adv-x="222" 
d="M245 716l-93 -144h-82l-93 144h46l88 -102l88 102h46z" />
    <glyph glyph-name="uni02C9" unicode="&#x2c9;" horiz-adv-x="222" 
d="M-11 614v54h244v-54h-244z" />
    <glyph glyph-name="breve" unicode="&#x2d8;" horiz-adv-x="222" 
d="M-12 699h30q16 -56 93 -56t93 56h30q-7 -52 -39.5 -84t-83.5 -32t-83.5 32t-39.5 84z" />
    <glyph glyph-name="dotaccent" unicode="&#x2d9;" horiz-adv-x="222" 
d="M74 604v84h75v-84h-75z" />
    <glyph glyph-name="ring" unicode="&#x2da;" horiz-adv-x="222" 
d="M15 648q0 40 27.5 67.5t68.5 27.5q40 0 68 -27.5t28 -67.5t-27.5 -67.5t-68.5 -27.5t-68.5 27t-27.5 68zM51 648q0 -25 18 -42t42 -17q26 0 43 17t17 42t-17.5 42t-42.5 17q-24 0 -42 -17.5t-18 -41.5z" />
    <glyph glyph-name="ogonek" unicode="&#x2db;" horiz-adv-x="222" 
d="M254 -137l14 -8q-10 -24 -35.5 -44.5t-65.5 -20.5q-34 0 -61 20t-27 53q0 19 10.5 39t21 32t33 29t29 21t27.5 16h28q-86 -68 -86 -124q0 -50 52 -50q38 0 60 37z" />
    <glyph glyph-name="tilde" unicode="&#x2dc;" horiz-adv-x="222" 
d="M9 595h-36q8 37 28.5 63.5t52.5 26.5q23 0 61 -12q41 -13 44 -13q17 0 31 9t18 25h37q-7 -48 -32 -68t-51 -20q-23 0 -62 13q-36 12 -47 12q-18 0 -27.5 -8.5t-16.5 -27.5z" />
    <glyph glyph-name="hungarumlaut" unicode="&#x2dd;" horiz-adv-x="222" 
d="M138 572l93 144h79l-126 -144h-46zM-32 572l93 144h79l-126 -144h-46z" />
    <glyph glyph-name="uni0394" unicode="&#x394;" horiz-adv-x="674" 
d="M550 72l-217 556l-213 -556h430zM662 0h-649l279 712h83z" />
    <glyph glyph-name="uni03A9" unicode="&#x3a9;" horiz-adv-x="748" 
d="M688 0h-256v183q85 17 130.5 77.5t45.5 149.5q0 104 -68 171.5t-172 67.5q-103 0 -172 -68t-69 -171q0 -88 46.5 -150.5t130.5 -76.5v-183h-257v67h193v72q-90 25 -141.5 101t-51.5 173q0 133 94 220.5t227 87.5q134 0 227 -86.5t93 -219.5q0 -99 -50.5 -174.5
t-141.5 -101.5v-72h192v-67z" />
    <glyph glyph-name="uni03BC" unicode="&#x3bc;" 
d="M79 -210v720h63v-310q0 -73 29 -114q29 -44 92 -44q43 0 73 18q29 16 46 44q17 27 25 60q7 29 7 64v282h63v-390q-1 -48 4 -120h-61v91h-2q-10 -21 -19 -34q-12 -18 -31 -34q-20 -16 -47 -24q-30 -11 -68 -11q-58 0 -111 29v-227h-63z" />
    <glyph glyph-name="pi" unicode="&#x3c0;" horiz-adv-x="570" 
d="M547 68v-57q-36 -17 -69 -17q-29 0 -47.5 9t-26 27.5t-10 36.5t-2.5 47v296h-246v-410h-75v410h-69v69h541v-69h-76v-299q0 -26 7 -39.5t31 -13.5q21 0 42 10z" />
    <glyph glyph-name="endash" unicode="&#x2013;" horiz-adv-x="500" 
d="M0 242v54h500v-54h-500z" />
    <glyph glyph-name="emdash" unicode="&#x2014;" horiz-adv-x="1000" 
d="M0 242v54h1000v-54h-1000z" />
    <glyph glyph-name="quoteleft" unicode="&#x2018;" horiz-adv-x="278" 
d="M206 698l-59 -218h-75l77 218h57z" />
    <glyph glyph-name="quoteright" unicode="&#x2019;" horiz-adv-x="278" 
d="M72 480l59 218h75l-77 -218h-57z" />
    <glyph glyph-name="quotesinglbase" unicode="&#x201a;" horiz-adv-x="278" 
d="M72 -134l59 218h75l-77 -218h-57z" />
    <glyph glyph-name="quotedblleft" unicode="&#x201c;" 
d="M257 698l-59 -218h-75l77 218h57zM433 698l-59 -218h-75l77 218h57z" />
    <glyph glyph-name="quotedblright" unicode="&#x201d;" 
d="M299 480l59 218h75l-77 -218h-57zM123 480l59 218h75l-77 -218h-57z" />
    <glyph glyph-name="quotedblbase" unicode="&#x201e;" 
d="M123 -134l59 218h75l-76 -218h-58zM299 -134l59 218h75l-77 -218h-57z" />
    <glyph glyph-name="dagger" unicode="&#x2020;" 
d="M246 0v456h-175v54h175v188h63v-188h176v-54h-176v-456h-63z" />
    <glyph glyph-name="daggerdbl" unicode="&#x2021;" 
d="M71 188v54h175v214h-175v54h175v188h63v-188h176v-54h-176v-214h176v-54h-176v-188h-63v188h-175z" />
    <glyph glyph-name="bullet" unicode="&#x2022;" horiz-adv-x="500" 
d="M76 349q0 72 51 123.5t123 51.5t123.5 -51.5t51.5 -123.5t-51.5 -123t-123.5 -51t-123 51t-51 123z" />
    <glyph glyph-name="ellipsis" unicode="&#x2026;" horiz-adv-x="1000" 
d="M127 0v84h81v-84h-81zM460 0v84h81v-84h-81zM793 0v84h81v-84h-81z" />
    <glyph glyph-name="perthousand" unicode="&#x2030;" horiz-adv-x="1000" 
d="M42 528q0 177 132 177t132 -177t-132 -177t-132 177zM105 528q0 -27 1.5 -42.5t7 -39t21 -35.5t39.5 -12t39.5 12t21 35.5t7 39t1.5 42.5t-1.5 42.5t-7 39t-21 35.5t-39.5 12t-39.5 -12t-21 -35.5t-7 -39t-1.5 -42.5zM380 170q0 177 132 177t132 -177t-132 -177t-132 177
zM443 170q0 -27 1.5 -42.5t7 -39t21 -35.5t39.5 -12t39.5 12t21 35.5t7 39t1.5 42.5t-1.5 42.5t-7 39t-21 35.5t-39.5 12t-39.5 -12t-21 -35.5t-7 -39t-1.5 -42.5zM694 170q0 177 132 177t132 -177t-132 -177t-132 177zM757 170q0 -27 1.5 -42.5t7 -39t21 -35.5t39.5 -12
t39.5 12t21 35.5t7 39t1.5 42.5t-1.5 42.5t-7 39t-21 35.5t-39.5 12t-39.5 -12t-21 -35.5t-7 -39t-1.5 -42.5zM108 -22l413 742h58l-413 -742h-58z" />
    <glyph glyph-name="guilsinglleft" unicode="&#x2039;" horiz-adv-x="278" 
d="M238 474l-133 -205l133 -205h-59l-140 205l140 205h59z" />
    <glyph glyph-name="guilsinglright" unicode="&#x203a;" horiz-adv-x="278" 
d="M40 64l133 205l-133 205h59l140 -205l-140 -205h-59z" />
    <glyph glyph-name="fraction" unicode="&#x2044;" horiz-adv-x="167" 
d="M-152 -22l413 742h57l-413 -742h-57z" />
    <glyph glyph-name="Euro" unicode="&#x20ac;" 
d="M566 685l-13 -63q-50 29 -130 29q-95 0 -160 -56t-87 -153h341l-11 -48h-339q-5 -44 0 -90h321l-10 -48h-302q22 -97 86.5 -152.5t159.5 -55.5q77 0 131 27l6 -64q-54 -23 -137 -23q-126 0 -210 71t-108 197h-90l11 48h73q-4 46 0 90h-84l11 48h80q26 124 110 195
q85 73 209 73q86 0 142 -25z" />
    <glyph glyph-name="afii61289" unicode="&#x2113;" horiz-adv-x="500" 
d="M386 65l20 -27q-52 -52 -120 -52q-53 0 -86 31t-33 93v130l-59 -64h-2l-21 27l82 84v264q0 81 33.5 125.5t84.5 44.5q45 0 72 -32.5t27 -90.5q0 -141 -166 -321v-159q0 -50 23 -71t55 -21q46 0 88 39h2zM341 593q0 40 -16.5 65.5t-40.5 25.5q-28 0 -47 -32t-19 -94v-233
q123 143 123 268z" />
    <glyph glyph-name="trademark" unicode="&#x2122;" horiz-adv-x="990" 
d="M195 284v366h-131v48h325v-48h-131v-366h-63zM478 284v414h102l122 -319l122 319h102v-414h-63v360h-2l-138 -360h-43l-137 360h-2v-360h-63z" />
    <glyph glyph-name="Omega" unicode="&#x2126;" horiz-adv-x="748" 
d="M688 0h-256v183q85 17 130.5 77.5t45.5 149.5q0 104 -68 171.5t-172 67.5q-103 0 -172 -68t-69 -171q0 -88 46.5 -150.5t130.5 -76.5v-183h-257v67h193v72q-90 25 -141.5 101t-51.5 173q0 133 94 220.5t227 87.5q134 0 227 -86.5t93 -219.5q0 -99 -50.5 -174.5
t-141.5 -101.5v-72h192v-67z" />
    <glyph glyph-name="estimated" unicode="&#x212e;" horiz-adv-x="600" 
d="M561 259h-404v-181q59 -59 145 -59q63 0 109 28.5t84 91.5l35 -21q-46 -73 -98 -104t-130 -31q-115 0 -186.5 79t-71.5 197q0 119 71 197.5t187 78.5q115 0 187 -77t72 -199zM157 295h291v145q-63 60 -147 60t-144 -60v-145z" />
    <glyph glyph-name="partialdiff" unicode="&#x2202;" horiz-adv-x="539" 
d="M101 674l-23 45q66 54 162 54q103 0 175.5 -96t72.5 -275q0 -114 -28 -204.5t-87 -145.5t-141 -55q-91 0 -140 67t-49 159q0 110 62.5 179.5t148.5 69.5q63 0 108.5 -33.5t61.5 -66.5h2q1 13 1 46q0 135 -56.5 219t-135.5 84q-74 0 -134 -47zM237 49h1q72 0 120 74.5
t59 183.5q-15 41 -56.5 77.5t-97.5 36.5q-64 0 -110.5 -58t-46.5 -139q0 -77 36 -126t95 -49z" />
    <glyph glyph-name="Delta" unicode="&#x2206;" horiz-adv-x="674" 
d="M550 72l-217 556l-213 -556h430zM662 0h-649l279 712h83z" />
    <glyph glyph-name="product" unicode="&#x220f;" horiz-adv-x="719" 
d="M650 -214h-78v928h-426v-928h-78v1000h582v-1000z" />
    <glyph glyph-name="summation" unicode="&#x2211;" horiz-adv-x="615" 
d="M589 -214h-564v64l322 440l-308 432v64h538v-72h-437l301 -424l-319 -432h467v-72z" />
    <glyph glyph-name="minus" unicode="&#x2212;" horiz-adv-x="600" 
d="M46 219v69h507v-69h-507z" />
    <glyph glyph-name="uni2215" unicode="&#x2215;" horiz-adv-x="167" 
d="M-152 -22l413 742h57l-413 -742h-57z" />
    <glyph glyph-name="uni2219" unicode="&#x2219;" horiz-adv-x="278" 
d="M92 311q0 24 16 36q15 12 32 12q18 0 32 -12t15 -36q-2 -23 -15 -35q-14 -12 -32 -12q-17 0 -32 12q-16 12 -16 35z" />
    <glyph glyph-name="radical" unicode="&#x221a;" horiz-adv-x="504" 
d="M514 786l-211 -1000h-75l-162 334l-47 -22l-28 60l112 52l151 -317l184 893h76z" />
    <glyph glyph-name="infinity" unicode="&#x221e;" horiz-adv-x="759" 
d="M337 251q-29 27 -45 40.5t-48 31.5t-57 18q-37 0 -58.5 -26t-21.5 -63q0 -39 22 -62.5t61 -23.5q62 0 147 85zM652 252q0 40 -21.5 65t-60.5 25q-12 0 -23.5 -3t-24 -9.5l-21.5 -11.5t-22.5 -16.5l-19 -16.5l-20 -18.5t-16.5 -15.5q32 -30 46 -42t44.5 -27.5t59.5 -15.5
q37 0 58 24.5t21 61.5zM717 255q0 -68 -40 -112.5t-107 -44.5q-87 0 -190 109q-3 -3 -23.5 -21.5t-26 -23l-23 -18.5t-28 -19l-26.5 -13t-31.5 -10.5t-32.5 -2.5q-66 0 -106.5 43t-40.5 110q0 66 39.5 111t105.5 45q38 0 76.5 -20t58.5 -38t58 -56l17.5 17.5t19 18.5t18 17
t20 17.5l19.5 14t22.5 13.5l22 9t25 7t25.5 2q66 0 107 -44t41 -111z" />
    <glyph glyph-name="integral" unicode="&#x222b;" horiz-adv-x="554" 
d="M420 730q0 -17 -12 -27.5t-30 -10.5t-34 21.5t-22 21.5q-8 0 -14.5 -7t-9.5 -18.5t-5 -25t-2 -29v-27t0.5 -22.5t0.5 -12l1 -39v-511q0 -119 -15 -167q-27 -90 -111 -90q-26 0 -47.5 13.5t-21.5 38.5q0 14 11.5 25t25.5 11q18 0 32.5 -21t19.5 -21q7 0 12.5 7.5t8.5 20.5
t5 27.5t2.5 31.5t0.5 28.5v23.5l-1 12v22v495q0 9 -0.5 39t-0.5 46.5t2 46t6.5 47.5t14 40.5t23 35t34 21.5t47.5 9q31 0 55 -14t24 -42z" />
    <glyph glyph-name="approxequal" unicode="&#x2248;" horiz-adv-x="593" 
d="M510 234h50q-7 -63 -38.5 -104t-90.5 -41q-45 0 -143 36t-129 36t-51 -23t-24 -55h-52q23 148 129 148q44 0 139.5 -35.5t134.5 -35.5q60 0 75 74zM511 415h50q-7 -63 -39 -104.5t-91 -41.5q-46 0 -143 35.5t-128 35.5q-30 0 -50 -22.5t-26 -54.5h-51q7 62 38.5 105
t90.5 43q44 0 139.5 -35.5t134.5 -35.5q60 0 75 75z" />
    <glyph glyph-name="notequal" unicode="&#x2260;" horiz-adv-x="593" 
d="M550 114h-287l-76 -146l-62 32l59 114h-141v72h178l67 127h-245v71h283l77 148l62 -32l-61 -116h146v-71h-183l-67 -127h250v-72z" />
    <glyph glyph-name="lessequal" unicode="&#x2264;" horiz-adv-x="593" 
d="M550 -30h-507v72h507v-72zM550 82l-507 184v75l507 187v-78l-408 -146l408 -145v-77z" />
    <glyph glyph-name="greaterequal" unicode="&#x2265;" horiz-adv-x="593" 
d="M550 -30h-507v72h507v-72zM550 266l-507 -184v77l408 145l-408 146v78l507 -187v-75z" />
    <glyph glyph-name="lozenge" unicode="&#x25ca;" horiz-adv-x="593" 
d="M428 356l-132 315l-131 -315l131 -315zM504 356l-172 -391h-72l-171 391l171 391h72z" />
    <glyph glyph-name="grave.cap" unicode="&#xe300;" horiz-adv-x="222" 
d="M74 882l93 -144h-46l-126 144h79z" />
    <glyph glyph-name="acute.cap" unicode="&#xe301;" horiz-adv-x="222" 
d="M53 738l93 144h79l-126 -144h-46z" />
    <glyph glyph-name="circumflex.cap" unicode="&#xe302;" horiz-adv-x="222" 
d="M-25 738l93 144h82l93 -144h-46l-88 102l-88 -102h-46z" />
    <glyph glyph-name="caron.cap" unicode="&#xe303;" horiz-adv-x="222" 
d="M243 882l-93 -144h-82l-93 144h46l88 -102l88 102h46z" />
    <glyph glyph-name="tilde.cap" unicode="&#xe304;" horiz-adv-x="222" 
d="M7 755h-36q8 35 27 62q19 26 54 28q31 -1 61 -12q28 -11 44 -13q17 0 31 9t18 25h37q-9 -53 -35 -71q-28 -18 -48 -17q-36 2 -62 13q-27 10 -47 12q-19 0 -27 -9q-9 -8 -17 -27z" />
    <glyph glyph-name="dieresis.cap" unicode="&#xe305;" horiz-adv-x="222" 
d="M-12 758v84h75v-84h-75zM159 758v84h75v-84h-75z" />
    <glyph glyph-name="macron.cap" unicode="&#xe306;" horiz-adv-x="222" 
d="M-13 768v54h244v-54h-244z" />
    <glyph glyph-name="breve.cap" unicode="&#xe307;" horiz-adv-x="222" 
d="M-14 871h30q10 -31 37 -43q25 -13 56 -13q32 0 58 13q25 12 35 43h30q-6 -50 -38 -82q-31 -34 -85 -34q-53 0 -84 34q-32 32 -39 82z" />
    <glyph glyph-name="ring.cap" unicode="&#xe308;" horiz-adv-x="222" 
d="M49 816q0 -26 18 -41q17 -18 42 -18q27 0 43 18q17 15 17 41t-17 43q-16 16 -43 16q-26 0 -42 -16q-18 -17 -18 -43zM13 816q0 43 28 68q27 25 68 27q41 -1 69 -27q25 -25 27 -68q-2 -42 -27 -67q-28 -28 -69 -28t-68 28q-28 25 -28 67z" />
    <glyph glyph-name="hungarumlaut.cap" unicode="&#xe309;" horiz-adv-x="222" 
d="M136 738l93 144h79l-126 -144h-46zM-34 738l93 144h79l-126 -144h-46z" />
    <glyph glyph-name="dotaccent.cap" unicode="&#xe30a;" horiz-adv-x="222" 
d="M72 758v84h75v-84h-75z" />
    <glyph glyph-name="caron.alt" unicode="&#xe30b;" horiz-adv-x="278" 
d="M11 545l18 164h61l-34 -164h-45z" />
    <glyph glyph-name="commaaccent" unicode="&#xe30c;" horiz-adv-x="222" 
d="M45 -217l38 144h74l-55 -144h-57z" />
    <glyph glyph-name="commaaccent.alt" unicode="&#xe30d;" horiz-adv-x="222" 
d="M166 716l-38 -144h-71l55 144h54z" />
    <glyph glyph-name="uniF8FF" unicode="&#xf8ff;" horiz-adv-x="512" 
d="M278 117h-56v67h56v-67zM271 234h-46l-2 17q0 56 13 81q15 28 46 59q31 29 40.5 46t9.5 37q0 36 -22.5 60.5t-53.5 24.5q-71 0 -82 -95l-50 8q7 69 43 103t92 34q54 0 89 -36t35 -95q0 -34 -13 -60t-50 -60q-37 -33 -43 -52q-6 -20 -6 -72zM50 50h412v617h-412v-617z
M0 718h512v-718h-512v718z" />
    </font>
</defs>
</svg>
